# Blender 3.6.1
# www.blender.org
mtllib cow2.mtl
o cow
v -3.712564 2.871662 -1.006868
v -1.974368 2.993106 0.484563
v 3.512066 1.430731 -0.598278
v -3.683080 2.939018 -0.678014
v -3.155172 3.629802 -1.256831
v -3.266252 3.514161 -0.769582
v 0.827196 4.277799 -1.839437
v 3.009702 3.468398 -1.067326
v -3.085468 0.089644 1.175873
v 7.459893 6.004645 -0.473259
v 2.245169 4.849549 -1.614431
v -1.525919 3.130601 -0.344476
v -3.175229 0.052576 0.511062
v -2.541749 0.138673 0.834798
v -3.626770 6.276481 1.014128
v -3.609701 6.782149 0.947116
v 7.979424 6.827195 -0.147125
v 3.811232 3.575147 -0.577078
v -2.975008 3.876033 0.468061
v 7.615674 7.200145 -0.496621
v -3.201240 0.651488 0.640830
v 8.635886 5.676195 -0.100024
v 7.334867 7.335961 0.772672
v 6.678163 7.643997 0.862034
v -2.428479 3.506443 0.881611
v -2.166949 2.739405 -0.321198
v 8.447509 5.653134 0.488097
v -0.971604 6.316497 -1.721834
v 6.314451 6.644243 -0.647265
v -3.654722 5.585045 1.061811
v -3.567577 0.888526 0.786491
v -3.685098 5.435987 -0.556760
v -3.975989 5.224024 0.154479
v -1.879120 3.488641 0.787277
v 1.472935 3.206175 -0.594612
v 3.065052 3.575049 -0.725850
v 6.608793 7.330904 -1.430121
v -3.484972 4.199414 0.322942
v 4.257905 0.074991 0.977439
v -3.051395 0.089582 -1.261524
v -0.435318 7.707491 -0.393401
v 8.643943 6.101857 0.416626
v -0.322325 3.105950 0.208802
v -3.434975 0.357889 0.709791
v 3.204111 1.835802 -0.501106
v 8.222501 5.801349 -0.088007
v -1.521803 3.016113 0.048823
v 7.722527 6.462826 0.569382
v 5.972294 7.297722 -0.527287
v -3.182088 0.651483 -0.729913
v 3.659968 0.098086 1.293843
v 2.992419 6.707860 -1.282509
v 7.972101 6.827339 0.369928
v 6.932622 7.021515 -0.690201
v 7.511869 7.585255 0.365428
v -2.960779 3.876033 -0.550935
v 7.538167 7.072088 0.778411
v -3.587358 7.250223 0.744136
v 6.779879 7.685527 1.542710
v -3.144608 7.107058 -1.493297
v 8.360136 5.707268 0.551928
v -0.348377 4.338624 -1.864851
v -0.119107 7.464416 -0.903755
v 3.589805 5.025532 -1.700192
v -3.950765 6.426634 -0.469964
v -2.492293 2.912598 0.447944
v -3.473784 4.546497 0.417409
v 8.352450 5.449891 0.116646
v 4.236731 0.077484 -0.816215
v 3.583662 0.487359 -0.608588
v 4.718131 6.428432 -0.831445
v -3.354852 4.309685 -0.882500
v -2.819663 2.909354 0.064647
v -1.536398 3.649142 -0.898935
v 7.458838 5.717353 0.453202
v 7.327196 6.254771 -0.549282
v -1.889797 4.800478 -1.864513
v -0.271309 5.334292 -1.949611
v -2.404026 3.987150 0.899618
v 1.179265 3.542922 -1.220563
v 7.452852 6.013546 0.690539
v -3.199160 7.565731 1.072578
v -2.949759 2.710143 -1.102069
v 6.333653 6.137393 0.678396
v 6.102901 5.617520 0.320021
v 1.517752 4.184672 -1.483949
v 6.608079 7.944005 -0.272037
v -3.380505 4.784811 -0.047199
v -3.403338 7.687642 -0.047511
v 2.773468 3.929253 -1.182629
v 0.465441 3.070906 -0.580411
v 4.724917 5.156555 0.594192
v 4.709212 4.478696 0.342521
v 3.962145 0.089572 -1.152966
v 6.820381 7.685635 -1.352812
v 4.799442 4.897158 0.978165
v 4.125222 5.038371 -1.509508
v 3.582168 0.054122 -0.538583
v 4.391840 3.706928 0.528476
v 4.028761 3.390213 0.115342
v 5.067783 5.837995 -0.631936
v -3.324240 3.395312 -0.012087
v 3.078026 4.688003 -1.666149
v 3.565494 0.054684 0.638515
v 3.367403 3.524359 0.567888
v 4.264717 4.005242 0.965075
v 5.309185 4.772095 0.053155
v 3.756884 3.587340 0.668673
v 7.939043 6.987721 0.110859
v 6.344255 5.511964 0.063007
v 4.670982 4.728524 -0.807463
v -2.612924 7.685172 1.096670
v 3.807567 3.208090 0.834280
v -3.476510 2.743900 -0.511274
v -2.834778 4.358812 -1.515774
v -2.849437 7.725935 0.466140
v 4.515786 5.595443 -0.979183
v 3.646195 1.998685 0.699551
v -3.906338 2.640032 0.030155
v 1.199839 7.293548 -1.020181
v 3.493966 1.430777 0.696132
v 0.616077 3.534477 -1.412015
v 6.948491 7.855643 -0.404804
v -1.643299 6.969107 -1.453152
v -2.480016 6.561130 -1.731756
v 3.401795 5.754293 -1.601136
v -3.222833 2.485076 -0.462480
v -3.581849 6.782149 -1.047525
v 3.535191 1.697225 1.032385
v -3.378492 0.354666 -1.061281
v 4.211752 3.783642 -0.769504
v 3.343115 2.205818 1.188135
v 3.766609 3.490783 1.376217
v -1.031729 7.126765 -1.466771
v 3.058675 1.837113 -0.664592
v 6.590820 7.328651 -0.661182
v 3.134821 1.757085 1.011248
v 3.503625 4.152520 1.688634
v 3.161574 3.295228 1.386897
v -1.566674 3.911540 -0.783620
v 2.729771 4.345375 -1.518963
v -4.073569 6.872068 -0.059324
v -3.170366 6.314921 -1.535525
v 8.381196 5.668588 -0.319136
v -3.185077 7.107058 1.404922
v -3.597041 6.276481 -1.114927
v -1.775228 5.547226 -1.824731
v 4.659078 4.390563 -0.225706
v 6.597906 7.944005 0.456510
v -3.477594 2.772246 -1.155100
v -1.041765 3.842380 -1.104744
v -3.573690 7.246128 -0.799371
v 6.934445 7.855643 0.598670
v -3.739229 2.871648 0.902859
v -3.508478 2.772323 1.057629
v -4.061189 2.747181 -0.056760
v -2.492092 7.227114 -1.522905
v -3.544222 0.888420 -0.885732
v -3.705888 5.504718 0.422713
v 6.920321 7.651788 0.787394
v 4.742517 3.710103 0.057118
v -2.834902 7.726010 -0.545829
v -2.155841 3.690387 -0.598849
v -0.363729 3.608882 -1.407167
v 3.618952 0.531563 0.740442
v 6.789938 7.165324 1.722538
v 2.309418 3.317376 0.032253
v -1.176952 3.637914 -0.016437
v -3.146319 4.847332 -1.496661
v 6.844798 7.510073 -0.732206
v 3.607331 0.639855 1.070757
v -3.417501 1.898429 -1.063904
v -2.867943 3.217470 0.401115
v 6.854395 8.092262 0.217960
v -3.211980 6.314976 1.446471
v -3.148883 1.830838 -0.861659
v -3.286467 3.514161 0.678155
v 4.646468 4.972102 -0.401336
v 3.712604 0.628870 -0.811774
v 3.358042 0.351465 -0.763682
v -2.175076 2.739417 0.260647
v 3.664304 1.998940 -0.597402
v -3.234495 2.485094 0.372352
v -3.142871 4.170472 0.688190
v -3.458588 3.782731 -0.306708
v -0.226371 6.251882 -1.701720
v 3.829376 3.208090 -0.727569
v -3.413804 0.357870 -0.805342
v -2.727373 5.009007 -1.790074
v -3.445863 1.898435 0.968140
v -1.310084 3.718129 0.482522
v -2.728334 2.721636 -0.350291
v 7.098353 8.017408 -0.091006
v 3.278649 0.404110 0.961925
v -3.159709 0.052590 -0.599446
v -2.517439 0.138673 -0.905396
v 3.189265 1.834330 0.590639
v 7.001577 8.047819 1.256102
v -2.137676 2.843444 -0.452368
v -1.859824 7.586713 0.991102
v -3.970068 5.223207 -0.265332
v -1.296114 3.718033 -0.518827
v 3.562629 1.697176 -0.933190
v -3.753022 4.368928 -0.052400
v 6.998611 5.631876 -0.092442
v 3.038868 1.836875 0.751705
v -0.499587 3.248447 -0.487765
v 2.978731 3.468349 1.150967
v 3.043335 3.575130 0.811204
v 6.446238 7.507061 -0.665351
v 2.714209 3.521870 0.469647
v -1.171035 4.414008 -1.603461
v 2.739345 3.929576 1.259728
v 1.444567 3.205461 0.642140
v 1.708117 5.395233 -1.680364
v 2.678782 4.329440 1.580544
v 2.090774 4.134544 1.405262
v 6.569777 7.328656 0.844952
v 1.475363 4.184672 1.551783
v 3.032190 4.715217 1.757817
v 2.199216 4.849305 1.676501
v 3.540932 5.025532 1.799834
v 2.728835 5.477475 1.761513
v 3.969853 4.290040 1.550402
v 3.202884 3.300442 -1.303952
v 4.030914 5.045109 1.651266
v 6.349773 6.136677 -0.501003
v -2.581285 7.685172 -1.169129
v 3.995483 5.729324 1.512040
v 4.462253 5.528867 1.128369
v 3.355762 5.754293 1.695511
v 3.765946 6.602862 1.233035
v 2.169892 6.334239 1.537179
v 2.955442 6.707860 1.365634
v 1.660598 5.394868 1.722770
v 2.970206 7.212611 1.034871
v 1.218814 6.417826 1.538554
v 2.012878 6.991657 1.156437
v 3.382270 3.524390 -0.473635
v 1.171565 7.291656 1.055076
v 4.264252 6.951210 0.938143
v 2.083787 7.507824 0.611777
v -2.183301 4.027416 -0.543953
v 3.037338 7.729121 0.644107
v 3.619847 0.665121 -0.971389
v 4.693078 6.428417 0.962871
v 4.987483 5.847261 0.791120
v -3.921651 2.841855 -0.196246
v -3.406800 0.354615 0.966603
v -3.962351 6.426627 0.359536
v 0.465814 2.963706 0.006510
v 5.089221 6.763981 0.837536
v 6.707342 6.765610 0.838995
v -4.188034 5.881695 -0.058112
v -2.533644 7.227114 1.452799
v -3.465007 6.189356 -0.048378
v 4.036143 5.729324 -1.399880
v 2.726263 3.521870 -0.393613
v 6.835396 7.165311 -1.532252
v -3.155770 0.693492 -1.023873
v -1.193285 7.658127 1.045490
v -3.378185 4.309686 0.788491
v -3.186877 4.847330 1.408238
v -2.171721 3.690387 0.538431
v 2.044382 6.991657 -1.099712
v -3.665340 2.909508 0.506707
v 0.111104 7.029786 -1.323855
v 5.752289 7.403414 0.548169
v 5.004553 7.234073 0.571126
v -3.183161 0.693533 0.935419
v -0.935924 5.455937 -1.766487
v 5.031474 7.394632 0.070261
v 0.477165 6.264488 -1.719237
v -2.556795 5.651249 -1.824680
v 3.080222 7.897905 0.047812
v -3.633923 5.659400 -0.053774
v 3.161841 1.757063 -0.923252
v -1.856229 3.488896 -0.839448
v 5.018542 7.234075 -0.431158
v 7.033924 8.047804 -1.060008
v 4.288754 6.951199 -0.818656
v 2.101272 7.793004 0.029345
v 3.052894 7.734276 -0.554911
v 2.997889 7.212665 -0.951480
v 2.099967 7.507808 -0.553355
v 6.699598 7.643977 -0.675159
v -1.163629 7.658127 -1.078386
v 6.425131 7.507070 0.845114
v 3.364777 0.268234 -0.996362
v 5.539347 7.468778 -0.087229
v 6.821706 7.510051 0.923090
v 0.443620 7.750253 0.006200
v 0.802659 7.594810 0.815342
v 0.825384 7.594823 -0.792517
v -2.753905 2.905802 -0.747140
v -2.513124 7.863184 -0.035047
v 8.778438 6.085020 -0.076954
v 2.130086 4.135127 -1.347499
v -0.144042 7.464405 0.900086
v -2.540125 2.898748 -0.076366
v -0.445951 7.707499 0.381076
v 0.076853 7.030011 1.325798
v 1.584163 3.064664 0.022126
v 2.776955 5.477475 -1.684623
v 0.429048 6.264488 1.726660
v -3.122420 4.170426 -0.775673
v 0.672735 5.301371 1.947899
v -0.273700 6.251882 1.687780
v -0.325267 5.333921 1.914603
v 0.774705 4.277799 1.919718
v -0.401079 4.338624 1.909377
v 1.144612 3.542922 1.261126
v -0.984697 5.456424 1.726335
v -2.771151 2.552607 0.224768
v 0.576164 3.534477 1.446362
v 0.449054 3.070906 0.593191
v 1.495312 6.386686 -1.478975
v -0.403137 3.608882 1.415060
v 5.110694 6.764023 -0.695009
v -0.869129 3.392781 0.353433
v 3.597161 4.206014 -1.599550
v 6.939626 7.651802 -0.593822
v -1.587910 3.911555 0.739684
v -3.787775 6.198415 -0.052887
v 6.566269 7.330917 1.614066
v -3.623651 5.585045 -1.163372
v -1.072241 3.842989 1.077798
v -1.215649 4.415110 1.591586
v -1.560899 3.649386 0.855696
v 7.490410 6.996498 -0.582282
v -2.527403 6.561130 1.661844
v -2.983558 3.259466 0.556501
v -2.046932 3.507046 1.236024
v 7.966191 5.590293 -0.100674
v -2.773887 2.905581 0.669973
v 0.727234 5.301863 -1.955083
v -2.979331 2.710184 1.019318
v -3.460775 4.546485 -0.514170
v -3.171715 1.830834 0.773476
v -2.377970 3.987150 -0.966320
v -3.167964 7.565731 -1.161476
v -2.331387 3.910228 -1.599075
v 4.011594 4.290040 -1.438882
v -2.855641 3.217442 -0.480964
v -3.002580 3.402608 -0.705970
v -2.197638 4.027416 0.482790
v 3.374977 2.205800 -1.094299
v -2.384802 3.902897 1.529584
v 3.828444 3.419042 -1.255858
v -1.974934 3.537645 -1.305238
v -3.188990 3.629826 1.168323
v -1.941121 4.800478 1.811030
v -2.875990 4.358817 1.436042
v -1.831457 7.586720 -1.042627
v -2.402880 3.506558 -0.949080
v -2.776292 5.009012 1.713234
v 3.798906 6.602862 -1.127393
v -1.825486 5.547226 1.774462
v -1.019283 6.316497 1.692677
v -2.606748 5.651249 1.752650
v -1.072283 7.126765 1.437463
v -1.684010 6.969187 1.406815
vn -0.0679 -0.8782 0.4734
vn -0.2557 0.0853 0.9630
vn -0.8831 -0.1609 -0.4407
vn -0.9723 -0.0384 -0.2308
vn -0.8124 0.5812 -0.0473
vn -0.8120 0.5817 -0.0463
vn 0.8480 -0.4391 0.2969
vn 0.8967 -0.0710 -0.4369
vn 0.2405 0.5105 -0.8255
vn -0.0659 -0.6758 0.7341
vn -0.0546 -0.8782 -0.4751
vn 0.0683 0.4858 0.8714
vn -0.5993 -0.7999 -0.0313
vn -0.1069 -0.1459 -0.9835
vn -0.0516 -0.6631 -0.7467
vn -0.1042 0.9938 0.0391
vn 0.2729 0.3113 0.9103
vn -0.4864 -0.6343 -0.6009
vn 0.7031 0.6910 0.1678
vn -0.4265 -0.2020 0.8816
vn -0.0281 0.9793 0.2006
vn -0.0920 -0.6238 0.7762
vn -0.9791 -0.0736 -0.1897
vn -0.4761 0.8788 -0.0308
vn -0.0788 0.5480 0.8328
vn 0.8247 0.0564 0.5627
vn -0.1019 0.9855 0.1355
vn -0.1888 0.3153 -0.9300
vn -0.7921 0.5361 -0.2918
vn -0.6130 0.1281 0.7796
vn -0.0359 -0.6921 -0.7209
vn 0.1316 0.9912 0.0147
vn 0.0551 -0.6849 0.7266
vn 0.2557 0.0739 0.9639
vn 0.5580 -0.1132 0.8221
vn 0.9284 -0.3569 0.1032
vn 0.9621 -0.2584 0.0868
vn 0.0605 -0.0974 0.9934
vn 0.1880 -0.0463 0.9811
vn -0.7765 -0.6298 -0.0200
vn -0.1992 -0.1839 -0.9626
vn 0.0361 -0.0349 -0.9987
vn -0.0194 0.0359 -0.9992
vn 0.0401 0.9803 -0.1932
vn -0.5947 -0.8038 -0.0163
vn 0.3254 0.1890 -0.9265
vn 0.3352 -0.1388 -0.9319
vn -0.3906 0.6401 0.6616
vn -0.1735 -0.8729 0.4560
vn 0.5308 -0.3058 0.7904
vn 0.6674 0.1847 0.7214
vn 0.9683 0.1239 -0.2169
vn 0.7804 0.6122 -0.1274
vn 0.4444 0.3777 0.8123
vn 0.2828 -0.7167 -0.6375
vn 0.6770 0.1997 -0.7084
vn -0.6454 -0.7632 0.0314
vn 0.6292 0.6021 -0.4915
vn -0.1935 0.9716 0.1362
vn 0.1860 -0.3731 0.9089
vn 0.9570 -0.0695 0.2817
vn 0.5148 -0.8194 -0.2521
vn 0.3127 -0.9086 0.2768
vn -0.7628 -0.5377 -0.3592
vn -0.8760 -0.3867 -0.2881
vn -0.4421 0.8934 0.0799
vn 0.1174 -0.5939 0.7959
vn 0.2684 -0.9442 -0.1907
vn -0.3389 -0.9037 -0.2617
vn 0.1965 -0.0051 -0.9805
vn 0.2529 0.9195 -0.3009
vn 0.4223 0.2094 -0.8820
vn 0.6246 0.7807 -0.0196
vn -0.3664 -0.0390 0.9297
vn 0.7588 -0.3898 -0.5218
vn -0.6108 -0.7910 0.0350
vn -0.2167 -0.2164 -0.9520
vn -0.3500 -0.2846 0.8925
vn 0.0152 -0.9987 -0.0482
vn 0.0616 0.0415 0.9972
vn 0.2772 0.2048 0.9387
vn 0.4331 -0.6147 0.6592
vn -0.0334 -0.0027 0.9994
vn -0.9615 -0.2551 0.1022
vn -0.1044 0.8880 -0.4479
vn -0.1928 -0.9698 -0.1493
vn 0.1455 0.4840 -0.8629
vn -0.1273 0.5699 0.8118
vn 0.0043 0.9651 -0.2619
vn 0.1090 -0.6713 -0.7331
vn 0.0049 -0.1152 -0.9933
vn 0.0374 0.1509 0.9878
vn 0.3485 -0.2833 0.8935
vn 0.0282 0.7024 -0.7112
vn -0.5320 -0.8467 -0.0101
vn 0.1584 0.1759 0.9716
vn 0.1156 -0.9926 -0.0365
vn 0.0083 0.7021 0.7121
vn -0.2718 0.0157 0.9622
vn 0.1321 -0.6353 -0.7609
vn -0.1225 0.2909 0.9489
vn 0.0177 0.0514 -0.9985
vn -0.6972 -0.6982 0.1624
vn 0.1211 0.9805 0.1547
vn -0.1614 -0.8729 -0.4604
vn -0.0805 0.8838 0.4608
vn -0.2281 0.5878 0.7762
vn -0.5029 -0.0939 0.8592
vn -0.4488 -0.8074 -0.3829
vn 0.7959 -0.5100 0.3262
vn 0.6287 -0.2391 -0.7400
vn 0.4660 -0.3104 0.8286
vn 0.7076 0.6909 -0.1479
vn -0.0078 0.2485 0.9686
vn -0.2006 0.5735 -0.7943
vn 0.3188 0.3040 0.8978
vn 0.2034 0.5325 0.8216
vn -0.4768 0.8789 0.0176
vn 0.4391 -0.7490 -0.4961
vn -0.7909 0.6054 -0.0897
vn 0.1765 0.5792 0.7959
vn -0.2148 0.3154 0.9243
vn -0.7999 0.5361 0.2696
vn -0.0696 -0.8897 -0.4511
vn 0.0347 0.9803 0.1942
vn 0.5319 0.0193 0.8466
vn 0.2019 -0.4968 -0.8441
vn -0.0639 -0.0303 0.9975
vn 0.6688 -0.0521 0.7416
vn 0.8873 0.4433 0.1273
vn 0.4756 -0.4877 -0.7321
vn -0.1779 -0.7692 -0.6137
vn -0.4539 0.5835 -0.6734
vn -0.7768 -0.6298 -0.0017
vn -0.4149 0.9075 -0.0660
vn 0.7893 -0.1834 0.5860
vn -0.0033 0.9650 0.2621
vn -0.5949 -0.8038 -0.0003
vn 0.1748 0.7226 -0.6688
vn -0.0235 -0.9993 0.0285
vn 0.7389 -0.1736 -0.6511
vn 0.5960 -0.5444 0.5903
vn -0.3085 -0.9490 -0.0649
vn 0.1111 -0.8765 -0.4685
vn 0.9855 0.0385 -0.1653
vn 0.5251 0.6050 0.5986
vn 0.4676 0.5828 0.6646
vn 0.3041 -0.8922 -0.3338
vn 0.1938 -0.8231 -0.5337
vn 0.2254 -0.0619 0.9723
vn 0.1878 -0.8213 0.5387
vn 0.1486 -0.3270 0.9333
vn -0.2405 -0.5237 -0.8172
vn -0.8252 -0.2110 -0.5239
vn 0.4104 -0.8613 0.2996
vn 0.9645 -0.0695 -0.2549
vn -0.5973 0.0290 -0.8015
vn -0.5015 0.8273 0.2532
vn -0.2030 0.9356 0.2890
vn 0.4985 -0.2407 -0.8328
vn 0.5074 -0.8195 0.2663
vn 0.6365 0.5031 0.5846
vn -0.9844 0.0750 -0.1591
vn 0.6338 0.7594 -0.1473
vn -0.9096 -0.2660 -0.3191
vn -0.8426 -0.5143 0.1596
vn -0.9489 -0.2286 -0.2175
vn 0.2367 0.9303 0.2803
vn -0.2863 -0.1775 -0.9416
vn 0.2293 0.6219 0.7488
vn 0.2219 0.7044 -0.6742
vn 0.1139 0.1188 -0.9864
vn -0.9808 0.1714 -0.0925
vn 0.2765 0.2054 0.9388
vn -0.9388 0.3009 -0.1676
vn 0.0303 0.9690 -0.2454
vn 0.8692 0.0663 -0.4900
vn -0.5547 -0.0056 -0.8320
vn -0.5927 0.0432 -0.8043
vn -0.1785 0.1277 -0.9756
vn -0.2762 0.4184 -0.8653
vn -0.0444 -0.5301 -0.8467
vn -0.8951 -0.1609 0.4159
vn 0.4678 -0.7633 0.4455
vn -0.0358 -0.1546 -0.9873
vn 0.9986 0.0337 0.0400
vn -0.1533 -0.3241 -0.9335
vn 0.1625 -0.8124 -0.5601
vn -0.9675 -0.2315 0.1015
vn -0.9662 -0.2346 0.1068
vn -0.9962 0.0454 0.0741
vn -0.8183 -0.2845 0.4994
vn 0.3033 0.2047 -0.9306
vn -0.6259 -0.0310 0.7793
vn -0.9783 -0.0384 0.2036
vn -0.8524 0.5209 0.0466
vn 0.9967 -0.0762 0.0275
vn -0.3638 -0.1795 0.9140
vn -0.5021 -0.2729 0.8206
vn -0.4781 -0.0310 0.8778
vn -0.6214 0.1165 0.7748
vn 0.1145 -0.9926 0.0399
vn 0.2262 0.5324 -0.8157
vn -0.7229 0.0766 0.6867
vn -0.0348 -0.0521 0.9980
vn -0.7230 0.0607 0.6882
vn -0.1002 0.0641 0.9929
vn -0.1965 -0.3589 0.9125
vn -0.7664 0.1097 0.6329
vn -0.9884 0.0133 -0.1516
vn 0.4728 -0.2323 -0.8500
vn -0.0833 0.0550 0.9950
vn 0.0110 -0.8584 0.5128
vn -0.0313 -0.8801 0.4737
vn -0.7975 0.3378 0.5000
vn -0.1649 0.5754 0.8011
vn -0.8893 0.2170 0.4025
vn -0.7454 0.2948 0.5978
vn 0.0192 -0.4013 0.9157
vn -0.4607 -0.2499 -0.8517
vn -0.8771 0.1942 0.4394
vn 0.9004 -0.0830 0.4271
vn 0.7077 0.0136 0.7064
vn -0.5901 0.2315 -0.7735
vn 0.8575 -0.4915 -0.1521
vn 0.2437 0.9331 -0.2644
vn -0.9524 -0.2306 0.1993
vn -0.8254 -0.0858 0.5580
vn -0.9266 0.1075 0.3604
vn 0.9748 -0.1761 -0.1369
vn 0.2388 -0.0410 0.9702
vn 0.2955 0.0990 0.9502
vn 0.2204 0.5902 0.7766
vn -0.7805 -0.5061 -0.3671
vn -0.1896 0.9716 -0.1415
vn 0.6381 -0.0198 0.7697
vn -0.1192 -0.2608 -0.9580
vn -0.3582 -0.3952 -0.8459
vn -0.7815 -0.0510 0.6218
vn 0.7032 -0.3214 -0.6342
vn -0.6937 -0.7052 0.1467
vn 0.7669 0.5568 -0.3192
vn -0.0019 -0.6287 -0.7776
vn 0.9876 -0.1277 0.0913
vn -0.0000 0.8493 0.5279
vn -0.7414 -0.0345 -0.6702
vn 0.8867 -0.2938 0.3571
vn 0.6858 -0.0072 -0.7278
vn -0.0176 -0.9843 -0.1755
vn -0.0653 -0.8584 0.5087
vn 0.9840 -0.0945 -0.1508
vn -0.9950 0.0446 -0.0898
vn 0.0861 0.4719 -0.8774
vn 0.9026 -0.3303 0.2761
vn 0.0273 0.9838 0.1769
vn 0.2737 -0.7551 0.5957
vn 0.0674 -0.2572 -0.9640
vn 0.7271 0.0136 -0.6864
vn 0.2158 -0.0327 0.9759
vn 0.9120 -0.0829 -0.4018
vn -0.8101 -0.0856 -0.5800
vn -0.8396 -0.3433 0.4210
vn -0.9156 0.1053 -0.3881
vn -0.0720 -0.3252 -0.9429
vn 0.1998 -0.4679 0.8609
vn -0.0181 -0.8801 -0.4745
vn 0.0962 -0.8805 0.4641
vn -0.7269 -0.1584 0.6683
vn 0.1182 0.4998 -0.8580
vn 0.0253 -0.8585 -0.5123
vn -0.1747 0.5151 0.8391
vn 0.9776 -0.1472 0.1507
vn -0.9922 0.0133 0.1239
vn -0.9436 0.2993 0.1413
vn 0.2226 -0.0047 0.9749
vn 0.2248 0.1675 0.9599
vn -0.0579 0.2425 0.9684
vn 0.5759 -0.3561 0.7359
vn 0.1681 0.7045 0.6895
vn -0.5679 0.8154 -0.1121
vn -0.7628 0.6245 0.1677
vn -0.4608 -0.8062 -0.3711
vn -0.4010 0.8381 0.3699
vn 0.1751 0.2623 0.9490
vn -0.4699 -0.2008 0.8596
vn -0.7563 0.6244 -0.1953
vn -0.0012 0.3511 0.9363
vn 0.2439 -0.0358 -0.9691
vn -0.0610 -0.6686 -0.7411
vn 0.1691 -0.0055 0.9856
vn 0.9708 -0.1596 0.1792
vn -0.8559 0.2026 -0.4757
vn -0.0467 -0.4987 -0.8655
vn -0.0675 0.8839 -0.4628
vn -0.8783 0.2374 -0.4149
vn 0.6087 -0.4670 -0.6414
vn -0.4015 0.8266 -0.3944
vn -0.7583 0.3178 -0.5692
vn -0.5644 0.8204 0.0917
vn -0.7832 0.3378 -0.5220
vn -0.7484 0.1097 -0.6541
vn 0.3172 0.0137 0.9482
vn 0.6543 -0.7553 -0.0377
vn -0.1424 0.5754 -0.8054
vn -0.1992 0.9692 -0.1446
vn -0.1305 0.5900 -0.7968
vn -0.0553 0.0549 -0.9970
vn -0.7035 0.0606 -0.7081
vn 0.2500 0.6219 -0.7421
vn -0.3522 0.2742 -0.8949
vn 0.1677 0.2978 -0.9398
vn 0.2090 0.5847 -0.7839
vn 0.5349 -0.2978 0.7907
vn -0.0082 -0.0842 -0.9964
vn 0.1320 0.9912 -0.0112
vn -0.1515 0.5148 -0.8438
vn 0.8299 -0.1243 -0.5439
vn -0.0189 0.1951 -0.9806
vn -0.1046 0.5698 -0.8151
vn 0.2825 0.0738 -0.9564
vn -0.3115 0.1225 -0.9423
vn -0.0965 0.2923 -0.9514
vn -0.0689 -0.5594 0.8261
vn -0.1282 0.2619 -0.9566
vn 0.0332 0.2498 -0.9677
vn -0.2095 0.8784 -0.4295
vn -0.7034 0.0766 -0.7066
vn -0.4534 -0.0310 -0.8908
vn -0.6040 -0.0310 -0.7964
vn -0.5995 0.1166 -0.7918
vn -0.0070 -0.0520 -0.9986
vn -0.8041 -0.2844 -0.5220
vn 0.2484 -0.5830 0.7736
vn -0.9643 -0.2315 -0.1285
vn -0.4790 -0.2728 -0.8343
vn 0.8048 -0.5508 -0.2214
vn -0.3382 -0.1795 -0.9238
vn -0.3124 -0.1775 0.9332
vn 0.6793 0.3792 0.6283
vn -0.1687 -0.3272 0.9298
vn 0.2030 0.7044 0.6801
vn 0.0863 0.1189 0.9892
vn -0.6149 0.0433 0.7874
vn -0.6590 -0.7496 0.0627
vn -0.5777 -0.0055 0.8162
vn 0.1424 0.8889 -0.4354
vn -0.5285 0.0879 0.8444
vn -0.1092 0.0798 0.9908
vn -0.3321 0.3801 0.8633
vn -0.0287 0.2620 -0.9646
vn -0.3359 0.3806 0.8616
vn -0.9755 0.2118 0.0596
vn 0.1855 0.1760 -0.9667
vn -0.9190 -0.2641 0.2928
vn 0.5568 -0.5083 0.6569
vn 0.5388 -0.2817 0.7940
vn -0.7207 -0.1836 -0.6685
vn -0.0357 -0.2275 0.9731
vn -0.8255 -0.1203 0.5515
vn 0.6853 0.6551 0.3181
vn 0.3950 -0.2677 -0.8788
vn 0.5990 -0.5534 -0.5787
vn -0.8835 -0.3868 0.2640
vn 0.0322 0.9839 -0.1761
vn -0.6893 -0.1191 0.7146
vn -0.9914 -0.0778 0.1048
vn -0.3083 -0.1243 0.9431
vn -0.1341 -0.1459 0.9802
vn 0.1006 -0.3426 0.9341
vn -0.7776 -0.0970 0.6213
vn 0.3036 -0.3592 -0.8825
vn -0.1313 -0.9759 0.1746
vn 0.1255 0.9805 -0.1513
vn 0.1585 -0.2632 -0.9516
vn 0.1987 0.5798 -0.7902
vn -0.2802 -0.2173 0.9350
vn -0.0490 -0.1324 0.9900
vn -0.0408 -0.0389 -0.9984
vn -0.1675 0.6086 0.7756
vn 0.6675 0.3809 -0.6398
vn -0.2754 -0.0604 -0.9594
vn -0.1528 0.5900 0.7928
vn 0.4363 -0.1910 0.8793
vn 0.1027 -0.2556 0.9613
vn 0.9372 -0.0917 0.3366
vn -0.7205 -0.2210 0.6573
vn -0.5123 -0.6413 0.5712
vn -0.6909 -0.6776 0.2521
vn -0.2721 -0.0639 0.9602
vn 0.1920 0.2537 0.9480
vn 0.2704 0.3567 0.8942
vn -0.9823 -0.1400 0.1245
vn 0.6698 0.1812 0.7201
vn -0.4786 -0.0939 -0.8730
vn -0.7570 -0.0202 -0.6531
vn -0.5664 -0.1240 -0.8147
vn 0.2778 -0.7685 0.5765
vn 0.1621 0.0024 -0.9868
vn -0.2032 0.9692 0.1389
vn -0.0818 0.7287 0.6799
vn -0.3285 -0.8508 0.4102
vn -0.5805 -0.7460 -0.3265
vn -0.0055 0.5002 0.8659
vn -0.8410 -0.2072 0.4998
vn -0.5043 -0.8603 -0.0739
vn 0.7307 -0.4456 0.5172
vn -0.5046 0.0878 -0.8588
vn 0.0881 -0.0974 -0.9913
vn 0.3372 -0.5563 0.7595
vn 0.9883 -0.1412 -0.0581
vn -0.3948 0.0395 -0.9179
vn 0.0446 -0.4018 -0.9146
vn 0.7056 -0.3285 -0.6279
vn -0.3214 -0.1884 -0.9280
vn 0.2180 -0.4672 -0.8569
vn -0.2836 -0.1421 -0.9484
vn -0.1709 -0.3589 -0.9176
vn -0.0725 0.0641 -0.9953
vn -0.0983 -0.3251 0.9405
vn -0.3659 -0.8675 0.3372
vn 0.1482 -0.3494 -0.9252
vn 0.2044 -0.4781 -0.8542
vn 0.0737 0.0418 -0.9964
vn 0.2365 -0.2021 -0.9504
vn 0.0751 0.0548 -0.9957
vn 0.5819 -0.6837 -0.4404
vn 0.2228 0.3937 -0.8919
vn 0.0315 0.0531 -0.9981
vn 0.0520 0.3034 -0.9515
vn -0.2485 -0.0709 0.9660
vn -0.2262 0.9294 -0.2918
vn 0.1465 0.3801 -0.9133
vn 0.1491 0.6074 -0.7803
vn 0.6529 -0.7554 0.0561
vn 0.4739 -0.8340 -0.2827
vn -0.1238 -0.4518 0.8835
vn 0.3686 -0.4362 0.8209
vn 0.4273 -0.1113 0.8972
vn 0.4551 -0.4877 0.7450
vn 0.2787 -0.3593 0.8907
vn -0.0114 -0.2963 -0.9550
vn 0.2429 0.9199 0.3079
vn 0.8996 -0.3529 0.2572
vn 0.6877 -0.3285 0.6474
vn 0.3926 0.4787 0.7853
vn 0.1968 0.5775 -0.7923
vn 0.3176 -0.1332 0.9388
vn 0.0498 -0.9985 -0.0232
vn 0.8961 -0.2939 -0.3325
vn 0.6852 -0.3214 0.6537
vn 0.4634 0.3915 0.7950
vn -0.0349 -0.5302 0.8472
vn 0.5124 -0.3325 -0.7917
vn 0.2952 0.3567 -0.8864
vn 0.1257 -0.9618 -0.2433
vn 0.9849 0.1681 -0.0414
vn -0.5890 -0.1240 0.7986
vn 0.9981 -0.0184 -0.0586
vn 0.0630 -0.9927 0.1023
vn 0.9814 -0.0062 0.1920
vn 0.6151 0.1077 -0.7810
vn 0.3819 0.1461 0.9126
vn -0.0982 0.9615 -0.2566
vn 0.9961 -0.0184 0.0866
vn -0.5894 -0.7459 0.3101
vn 0.4901 -0.3325 0.8057
vn 0.5931 0.1076 0.7979
vn -0.3103 -0.1414 0.9401
vn 0.1273 0.6074 0.7841
vn 0.3390 -0.5275 0.7790
vn 0.4237 -0.4199 -0.8026
vn -0.9829 0.0088 -0.1841
vn 0.1301 0.8889 0.4392
vn 0.8445 -0.2742 -0.4600
vn 0.9477 0.1641 0.2737
vn -0.4206 0.0397 0.9064
vn 0.0213 -0.5242 0.8513
vn 0.3669 -0.8758 -0.3135
vn 0.0574 -0.9312 0.3600
vn -0.9428 -0.1116 0.3142
vn 0.7336 0.4485 0.5106
vn -0.6191 0.0299 0.7847
vn 0.7939 0.0218 -0.6076
vn -0.0819 0.4802 0.8733
vn 0.5787 -0.5647 0.5883
vn -0.9898 0.1276 0.0638
vn 0.1415 0.2977 0.9441
vn 0.0024 0.2386 -0.9711
vn -0.0303 0.4473 -0.8939
vn 0.1493 0.8088 0.5688
vn 0.3256 -0.0013 -0.9455
vn 0.1749 0.5773 0.7976
vn -0.1195 0.4681 -0.8756
vn -0.0821 -0.9218 0.3788
vn -0.3329 0.3019 0.8933
vn 0.2225 0.9265 -0.3034
vn -0.9876 0.1277 -0.0913
vn -0.9583 -0.2551 -0.1290
vn -0.2188 -0.5600 0.7991
vn 0.1807 0.0954 0.9789
vn 0.1281 -0.2562 -0.9581
vn 0.6294 0.7594 0.1649
vn 0.3206 0.0894 -0.9430
vn -0.2817 -0.8249 0.4902
vn 0.0859 -0.9796 0.1815
vn 0.3975 0.2095 0.8934
vn -0.4832 0.2928 0.8251
vn 0.2760 -0.0812 -0.9577
vn 0.1966 0.1435 0.9699
vn -0.1409 -0.3039 0.9422
vn 0.1180 -0.9623 0.2451
vn 0.4384 -0.6044 -0.6652
vn -0.3169 -0.8507 -0.4195
vn 0.1432 -0.2397 -0.9602
vn 0.0158 -0.1107 -0.9937
vn 0.2623 -0.9443 0.1987
vn 0.2885 0.9314 -0.2218
vn -0.8088 -0.1189 -0.5760
vn -0.0406 -0.9813 0.1880
vn 0.0109 0.5240 -0.8517
vn -0.9843 -0.0993 -0.1457
vn 0.4854 0.3915 -0.7817
vn -0.7099 -0.6914 0.1344
vn -0.0629 0.7287 -0.6820
vn -0.2184 0.8790 0.4238
vn 0.2402 0.2425 -0.9400
vn 0.4522 -0.1113 -0.8850
vn -0.3769 0.2742 0.8847
vn 0.4687 -0.8357 0.2861
vn 0.5110 -0.2757 -0.8141
vn 0.8355 0.5086 0.2082
vn -0.9627 -0.2425 0.1201
vn 0.1870 0.4911 -0.8508
vn -0.7058 -0.6914 -0.1541
vn 0.2017 -0.1696 0.9647
vn 0.1632 0.4910 0.8557
vn -0.3077 0.3019 -0.9023
vn -0.0050 -0.1261 0.9920
vn -0.9344 -0.1115 -0.3382
vn -0.6571 -0.7494 -0.0813
vn 0.3915 -0.4362 -0.8102
vn 0.1979 0.3936 0.8977
vn -0.1077 0.9586 0.2636
vn 0.0091 0.6100 -0.7923
vn -0.1044 -0.0464 0.9934
vn 0.4318 0.1420 -0.8907
vn 0.2524 -0.0618 -0.9656
vn -0.2768 -0.1278 -0.9524
vn 0.0244 -0.8205 0.5711
vn -0.0575 0.4423 0.8950
vn 0.5599 -0.6914 0.4567
vn 0.5746 -0.4312 -0.6956
vn -0.2344 -0.9512 0.2009
vn -0.0255 0.2177 0.9757
vn 0.9898 -0.1276 -0.0638
vn -0.3518 -0.5243 0.7755
vn -0.3264 -0.8904 0.3172
vn -0.2109 0.2646 -0.9410
vn -0.7452 0.0678 0.6634
vn -0.4910 0.1679 0.8548
vn -0.4486 -0.8914 0.0645
vn -0.0238 -0.6278 0.7780
vn 0.2244 0.7379 0.6365
vn 0.0234 0.9689 0.2461
vn -0.1030 0.9938 -0.0421
vn 0.0248 -0.9480 0.3173
vn 0.1561 0.7225 0.6735
vn -0.9994 -0.0121 -0.0339
vn -0.7267 -0.1738 -0.6646
vn -0.1480 -0.7432 -0.6525
vn 0.0460 0.5088 0.8596
vn -0.1459 0.6085 -0.7801
vn 0.9864 -0.0062 -0.1645
vn -0.0305 -0.6254 0.7797
vn 0.2140 0.9265 0.3095
vn -0.9904 0.1318 0.0422
vn 0.2422 0.7376 -0.6304
vn 0.2975 -0.3647 0.8823
vn -0.9875 0.0092 0.1572
vn -0.0132 0.6103 0.7920
vn 0.2787 -0.5370 -0.7962
vn 0.1871 0.5847 0.7894
vn -0.3104 -0.2204 0.9247
vn -0.4758 -0.8776 -0.0584
vn -0.0033 -0.9978 0.0666
vn -0.2530 -0.0216 -0.9672
vn -0.3171 -0.8904 -0.3266
vn 0.8659 -0.4196 -0.2723
vn -0.3513 -0.1389 -0.9259
vn 0.4923 -0.3093 -0.8136
vn 0.7388 0.6497 0.1791
vn 0.5608 -0.2814 -0.7787
vn 0.4982 -0.8311 -0.2471
vn 0.5238 -0.2765 0.8057
vn -0.0721 -0.9249 -0.3733
vn 0.2822 0.9315 0.2297
vn -0.1756 -0.2638 0.9485
vn -0.4998 -0.0199 0.8659
vn -0.0478 0.0330 0.9983
vn 0.4582 -0.2240 0.8602
vn 0.4016 -0.5934 -0.6975
vn 0.2584 -0.8629 0.4344
vn 0.0681 0.3063 -0.9495
vn 0.2329 -0.1444 0.9617
vn -0.3489 -0.1874 0.9182
vn 0.2581 -0.5908 -0.7644
vn 0.0950 0.4957 0.8633
vn 0.1122 0.4857 0.8669
vn 0.1873 0.7045 -0.6846
vn -0.1274 0.6786 0.7234
vn 0.1881 -0.8786 0.4389
vn 0.2924 -0.1498 0.9445
vn 0.3205 -0.9090 -0.2664
vn -0.3106 -0.8369 -0.4507
vn 0.2661 -0.7156 0.6459
vn -0.9627 -0.2083 -0.1725
vn 0.0176 0.1846 0.9827
vn -0.7287 0.0676 -0.6815
vn 0.2628 -0.5672 0.7805
vn -0.3034 -0.5017 -0.8101
vn 0.0513 0.3362 -0.9404
vn 0.0482 -0.9611 -0.2718
vn 0.5310 0.4992 0.6847
vn 0.1736 -0.3691 -0.9130
vn 0.1176 -0.6779 0.7257
vn -0.0694 -0.5451 0.8355
vn 0.1345 0.0024 0.9909
vn -0.0070 -0.4970 -0.8677
vn 0.3402 -0.5050 -0.7932
vn -0.3084 -0.0787 -0.9480
vn -0.3750 -0.3926 0.8398
vn 0.1057 -0.0907 0.9903
vn 0.9642 -0.2582 -0.0599
vn 0.0143 -0.1218 -0.9925
vn -0.0079 0.5484 -0.8362
vn 0.0613 0.0393 0.9973
vn -0.7749 -0.0202 0.6317
vn -0.2800 -0.0217 0.9597
vn 0.0062 0.2497 0.9683
vn 0.6443 -0.1828 -0.7426
vn -0.2801 -0.2229 -0.9337
vn 0.3785 -0.1095 -0.9191
vn -0.2182 -0.9600 -0.1752
vn -0.0103 -0.0285 0.9995
vn -0.0474 -0.6845 -0.7274
vn 0.6597 0.6800 -0.3199
vn 0.3252 0.2241 -0.9187
vn 0.3263 0.2655 -0.9072
vn -0.9945 -0.1047 0.0087
vn -0.0224 0.9793 -0.2013
vn -0.3852 0.7038 0.5969
vn 0.4250 -0.2097 -0.8806
vn 0.0324 0.3022 0.9527
vn 0.9976 0.0685 0.0126
vn 0.0909 -0.9796 -0.1790
vn -0.3914 -0.1081 -0.9138
vn 0.5433 -0.1052 0.8329
vn 0.5127 0.7734 0.3728
vn -0.2028 -0.8392 -0.5046
vn -0.0009 -0.0108 0.9999
vn 0.6214 -0.1707 -0.7647
vn -0.9557 -0.2486 -0.1579
vn 0.0424 -0.1464 -0.9883
vn 0.8708 -0.4326 -0.2335
vn 0.2508 -0.8824 0.3982
vn 0.7947 0.5633 -0.2261
vn -0.3377 0.1226 0.9332
vn -0.0226 -0.9843 0.1753
vn 0.7774 0.5943 -0.2060
vn 0.0421 0.3424 0.9386
vn -0.2356 -0.9500 -0.2050
vn 0.0650 0.1508 -0.9864
vn 0.6472 -0.0792 -0.7582
vn 0.1886 0.2796 -0.9414
vn -0.4670 -0.8038 0.3686
vn 0.1692 -0.4898 0.8553
vn 0.1964 -0.6141 0.7644
vn -0.4832 -0.7979 0.3604
vn 0.0100 0.0395 0.9992
vn 0.2154 -0.0462 -0.9754
vn -0.4670 0.1678 -0.8682
vn -0.6969 -0.0285 -0.7166
vn -0.2237 0.2456 0.9432
vn 0.1945 0.2763 -0.9412
vn -0.8091 -0.1204 -0.5752
vn -0.1530 0.2616 0.9530
vn 0.6575 -0.4269 0.6209
vn 0.2803 -0.0321 -0.9594
vn -0.3233 -0.8367 0.4420
vn 0.5320 0.6219 -0.5747
vn 0.4837 0.5837 -0.6522
vn 0.4254 0.4703 -0.7732
vn 0.5250 0.0234 -0.8508
vn 0.0541 -0.9591 -0.2778
vn 0.5564 0.7933 0.2471
vn 0.7481 -0.1844 -0.6374
vn 0.8567 -0.1358 0.4976
vn 0.3437 0.3041 -0.8885
vn 0.7765 -0.3162 0.5450
vn 0.0434 0.8794 -0.4741
vn -0.0449 0.9622 -0.2686
vn -0.1073 0.6785 -0.7267
vn 0.0504 0.0605 0.9969
vn 0.0989 -0.2356 0.9668
vn 0.1649 0.8088 -0.5645
vn 0.2417 0.5903 -0.7702
vn -0.1965 0.1868 -0.9625
vn -0.6096 -0.5492 -0.5717
vn -0.4089 0.6852 -0.6028
vn -0.4029 0.7036 -0.5854
vn 0.6203 0.7515 -0.2246
vn 0.1208 0.3734 0.9198
vn 0.0199 0.2472 -0.9688
vn -0.1886 -0.1177 -0.9750
vn -0.0755 0.0102 -0.9971
vn 0.2564 -0.0400 -0.9657
vn 0.1856 -0.0844 -0.9790
vn 0.0978 -0.2693 -0.9581
vn -0.0251 -0.1932 -0.9808
vn 0.2173 0.5106 0.8319
vt 0.710938 0.666992
vt 0.717773 0.706787
vt 0.738770 0.668457
vt 0.746582 0.710205
vt 0.752930 0.759399
vt 0.724121 0.752563
vt 0.752441 0.795532
vt 0.735352 0.796875
vt 0.752930 0.804199
vt 0.738281 0.804932
vt 0.738281 0.822998
vt 0.754395 0.823853
vt 0.801270 0.578369
vt 0.814453 0.583496
vt 0.814941 0.569824
vt 0.819336 0.575928
vt 0.817871 0.557617
vt 0.824707 0.596436
vt 0.822754 0.563477
vt 0.826660 0.547607
vt 0.828613 0.593506
vt 0.841797 0.604736
vt 0.841309 0.611084
vt 0.837891 0.586182
vt 0.833496 0.555664
vt 0.840332 0.546631
vt 0.852539 0.604492
vt 0.856445 0.611328
vt 0.848145 0.580078
vt 0.845215 0.555420
vt 0.856445 0.549805
vt 0.862305 0.600098
vt 0.868652 0.603516
vt 0.855957 0.578369
vt 0.858887 0.560059
vt 0.865234 0.548828
vt 0.863770 0.590576
vt 0.862305 0.580078
vt 0.867676 0.591309
vt 0.875000 0.593018
vt 0.881836 0.604492
vt 0.895020 0.598877
vt 0.867188 0.578369
vt 0.866699 0.560059
vt 0.872559 0.549072
vt 0.878906 0.575928
vt 0.881836 0.591309
vt 0.895020 0.575928
vt 0.889160 0.561279
vt 0.874512 0.559570
vt 0.888184 0.548340
vt 0.931641 0.600830
vt 0.919922 0.601318
vt 0.939941 0.609863
vt 0.922363 0.614014
vt 0.940918 0.618896
vt 0.915039 0.602783
vt 0.922852 0.619629
vt 0.933594 0.629639
vt 0.921387 0.633057
vt 0.910645 0.613525
vt 0.904785 0.607422
vt 0.900879 0.614502
vt 0.900879 0.617676
vt 0.911133 0.619141
vt 0.916016 0.630371
vt 0.906250 0.625488
vt 0.930664 0.536865
vt 0.920410 0.537354
vt 0.939453 0.545654
vt 0.923340 0.550049
vt 0.940430 0.554688
vt 0.915527 0.539063
vt 0.923828 0.555664
vt 0.933594 0.565430
vt 0.922852 0.569092
vt 0.911133 0.549805
vt 0.905762 0.543945
vt 0.901855 0.552246
vt 0.901855 0.555908
vt 0.912109 0.556885
vt 0.917480 0.566650
vt 0.907227 0.562256
vt 0.801270 0.421875
vt 0.814941 0.430664
vt 0.814453 0.416504
vt 0.819336 0.424316
vt 0.817871 0.442383
vt 0.824707 0.403809
vt 0.822754 0.437012
vt 0.826660 0.452637
vt 0.828613 0.406738
vt 0.841797 0.395508
vt 0.841309 0.389160
vt 0.837891 0.414063
vt 0.833496 0.444824
vt 0.840332 0.453613
vt 0.852539 0.395508
vt 0.856445 0.388672
vt 0.848145 0.419922
vt 0.845215 0.444824
vt 0.856445 0.450684
vt 0.862305 0.400391
vt 0.868652 0.396973
vt 0.855957 0.421875
vt 0.858887 0.440430
vt 0.865234 0.451172
vt 0.863770 0.409668
vt 0.862305 0.419922
vt 0.867676 0.409180
vt 0.875000 0.407227
vt 0.881836 0.395508
vt 0.895020 0.401367
vt 0.867188 0.421875
vt 0.866699 0.439941
vt 0.872559 0.451172
vt 0.881836 0.408691
vt 0.874512 0.440430
vt 0.888184 0.451660
vt 0.889160 0.438965
vt 0.878906 0.424316
vt 0.895020 0.424316
vt 0.801758 0.297363
vt 0.772949 0.296387
vt 0.801270 0.324707
vt 0.769531 0.330566
vt 0.801270 0.366211
vt 0.746582 0.290039
vt 0.767578 0.369629
vt 0.796875 0.398926
vt 0.824707 0.289551
vt 0.827148 0.273438
vt 0.769043 0.394043
vt 0.774414 0.269531
vt 0.797852 0.237305
vt 0.726074 0.412109
vt 0.791992 0.419922
vt 0.775391 0.237305
vt 0.792969 0.205566
vt 0.752930 0.240723
vt 0.769531 0.208008
vt 0.787109 0.185547
vt 0.717773 0.293457
vt 0.767578 0.190430
vt 0.738770 0.331543
vt 0.752441 0.204590
vt 0.733398 0.374023
vt 0.710938 0.333008
vt 0.704590 0.373047
vt 0.724121 0.247559
vt 0.682129 0.333496
vt 0.695313 0.297363
vt 0.669922 0.365234
vt 0.693848 0.411621
vt 0.632813 0.356445
vt 0.683594 0.437012
vt 0.641113 0.318848
vt 0.716797 0.441406
vt 0.788574 0.431152
vt 0.658203 0.436523
vt 0.757813 0.466309
vt 0.788574 0.449707
vt 0.679688 0.457520
vt 0.700195 0.461914
vt 0.787598 0.477539
vt 0.798340 0.458984
vt 0.730469 0.476074
vt 0.822266 0.484375
vt 0.825684 0.469238
vt 0.753906 0.500000
vt 0.848633 0.486328
vt 0.850586 0.473145
vt 0.874023 0.476563
vt 0.788574 0.500000
vt 0.820801 0.500000
vt 0.873047 0.487793
vt 0.897461 0.478027
vt 0.847656 0.500000
vt 0.896973 0.488281
vt 0.943848 0.478516
vt 0.872070 0.500000
vt 0.848633 0.513672
vt 0.940430 0.487305
vt 0.873047 0.512451
vt 0.895996 0.500000
vt 0.896973 0.511719
vt 0.897461 0.522217
vt 0.874023 0.523682
vt 0.943848 0.521729
vt 0.850586 0.526855
vt 0.825684 0.531006
vt 0.940430 0.512695
vt 0.822266 0.515869
vt 0.798340 0.541016
vt 0.787598 0.522705
vt 0.788574 0.550293
vt 0.757813 0.533691
vt 0.788574 0.569336
vt 0.741699 0.500000
vt 0.716797 0.558838
vt 0.791992 0.580322
vt 0.717773 0.483398
vt 0.726074 0.588135
vt 0.796875 0.601074
vt 0.700195 0.481934
vt 0.723145 0.500000
vt 0.679688 0.480469
vt 0.699219 0.500000
vt 0.659180 0.478516
vt 0.677246 0.500000
vt 0.700195 0.518311
vt 0.717773 0.516602
vt 0.730469 0.524170
vt 0.700195 0.538330
vt 0.679688 0.519775
vt 0.679688 0.542969
vt 0.683594 0.563232
vt 0.659180 0.521729
vt 0.658203 0.563965
vt 0.659180 0.542725
vt 0.693848 0.588623
vt 0.627930 0.570313
vt 0.661621 0.592773
vt 0.628418 0.544922
vt 0.627441 0.601563
vt 0.627441 0.522461
vt 0.595215 0.574219
vt 0.601074 0.546875
vt 0.669922 0.635254
vt 0.592285 0.609131
vt 0.704590 0.627441
vt 0.632813 0.644043
vt 0.733398 0.626221
vt 0.682129 0.666504
vt 0.769531 0.669678
vt 0.695313 0.702881
vt 0.824707 0.710449
vt 0.827148 0.726563
vt 0.703125 0.747314
vt 0.774414 0.730469
vt 0.797852 0.763062
vt 0.775391 0.762939
vt 0.792969 0.794434
vt 0.772949 0.703857
vt 0.769531 0.792236
vt 0.787109 0.814819
vt 0.801758 0.703125
vt 0.801270 0.675537
vt 0.801270 0.634277
vt 0.767578 0.809692
vt 0.765137 0.832642
vt 0.778809 0.840698
vt 0.773438 0.860962
vt 0.764160 0.859741
vt 0.753418 0.859253
vt 0.765137 0.909180
vt 0.773926 0.910217
vt 0.774414 0.922363
vt 0.756348 0.909241
vt 0.765625 0.923279
vt 0.775879 0.931396
vt 0.767090 0.934875
vt 0.776855 0.937958
vt 0.757813 0.927124
vt 0.767578 0.942078
vt 0.779297 0.943756
vt 0.758301 0.938629
vt 0.750977 0.928833
vt 0.747559 0.911011
vt 0.754395 0.940033
vt 0.740723 0.860474
vt 0.743652 0.929321
vt 0.740234 0.913879
vt 0.730469 0.862793
vt 0.725098 0.832275
vt 0.731934 0.916687
vt 0.723145 0.812988
vt 0.712402 0.848755
vt 0.718262 0.865112
vt 0.719238 0.796387
vt 0.702637 0.815796
vt 0.696289 0.797729
vt 0.679688 0.752319
vt 0.660156 0.715332
vt 0.654297 0.761353
vt 0.641113 0.681641
vt 0.632324 0.735352
vt 0.604980 0.706787
vt 0.591797 0.652832
vt 0.623535 0.760376
vt 0.557129 0.612793
vt 0.678223 0.799805
vt 0.560547 0.575684
vt 0.642090 0.775391
vt 0.687012 0.820313
vt 0.631836 0.779785
vt 0.624512 0.777832
vt 0.629883 0.804810
vt 0.621582 0.769531
vt 0.659668 0.810913
vt 0.646973 0.827026
vt 0.667969 0.830566
vt 0.654297 0.844971
vt 0.670898 0.864014
vt 0.687500 0.862183
vt 0.701172 0.855225
vt 0.694336 0.873779
vt 0.683105 0.879272
vt 0.707031 0.868286
vt 0.700684 0.924500
vt 0.722168 0.920288
vt 0.712402 0.922852
vt 0.714844 0.934326
vt 0.704102 0.935364
vt 0.706055 0.943695
vt 0.735352 0.928955
vt 0.724609 0.932617
vt 0.746582 0.941101
vt 0.736328 0.940002
vt 0.726563 0.940735
vt 0.716309 0.941895
vt 0.716797 0.949341
vt 0.706543 0.949890
vt 0.728027 0.948822
vt 0.737305 0.948181
vt 0.729004 0.959290
vt 0.717773 0.958801
vt 0.706055 0.956177
vt 0.705078 0.960846
vt 0.749023 0.948486
vt 0.718262 0.962006
vt 0.755859 0.946228
vt 0.728516 0.963013
vt 0.719238 0.972748
vt 0.699707 0.975937
vt 0.704590 0.979355
vt 0.738770 0.957397
vt 0.708984 0.971436
vt 0.715332 0.979660
vt 0.712891 0.984741
vt 0.721680 0.987160
vt 0.721680 0.982132
vt 0.723633 0.987190
vt 0.723633 0.982315
vt 0.727051 0.973480
vt 0.729492 0.980682
vt 0.730957 0.985596
vt 0.739746 0.962952
vt 0.735352 0.972809
vt 0.739746 0.980804
vt 0.743652 0.978409
vt 0.750977 0.973083
vt 0.748047 0.963379
vt 0.757813 0.960541
vt 0.760742 0.967773
vt 0.768555 0.964996
vt 0.749512 0.955933
vt 0.758301 0.953247
vt 0.765625 0.957550
vt 0.780762 0.962646
vt 0.753906 0.952515
vt 0.775879 0.952911
vt 0.791504 0.961670
vt 0.782715 0.947998
vt 0.753418 0.951385
vt 0.754395 0.952057
vt 0.754395 0.951202
vt 0.761230 0.951813
vt 0.769531 0.948151
vt 0.759277 0.944916
vt 0.763184 0.949097
vt 0.762695 0.948456
vt 0.763672 0.948914
vt 0.763184 0.947968
vt 0.931641 0.399414
vt 0.939941 0.390137
vt 0.919922 0.398926
vt 0.922363 0.386230
vt 0.940918 0.381348
vt 0.915039 0.397461
vt 0.922852 0.380371
vt 0.933594 0.370605
vt 0.921387 0.367188
vt 0.910645 0.386719
vt 0.904785 0.393066
vt 0.900879 0.385742
vt 0.900879 0.382324
vt 0.911133 0.380859
vt 0.916016 0.369629
vt 0.906250 0.374512
vt 0.050720 0.633057
vt 0.060272 0.630371
vt 0.048004 0.626709
vt 0.056458 0.624756
vt 0.067444 0.629395
vt 0.045807 0.618896
vt 0.066040 0.623291
vt 0.074402 0.626465
vt 0.052734 0.617920
vt 0.045319 0.610352
vt 0.073975 0.621826
vt 0.076233 0.625488
vt 0.061676 0.616455
vt 0.051910 0.611328
vt 0.044708 0.604736
vt 0.069397 0.614258
vt 0.049438 0.606689
vt 0.047821 0.597412
vt 0.081177 0.622559
vt 0.076660 0.627686
vt 0.054382 0.603516
vt 0.052216 0.592041
vt 0.054047 0.609619
vt 0.060486 0.601563
vt 0.059326 0.585205
vt 0.054077 0.608154
vt 0.056183 0.605225
vt 0.057251 0.608643
vt 0.058838 0.610352
vt 0.059875 0.605225
vt 0.059052 0.604248
vt 0.065369 0.607422
vt 0.073425 0.602539
vt 0.077881 0.612305
vt 0.067688 0.593750
vt 0.087708 0.592773
vt 0.077698 0.582520
vt 0.069092 0.574219
vt 0.094849 0.603271
vt 0.093018 0.569336
vt 0.082092 0.560303
vt 0.104065 0.580322
vt 0.115723 0.587646
vt 0.111328 0.571045
vt 0.108459 0.559082
vt 0.093262 0.547363
vt 0.130615 0.576416
vt 0.117676 0.542480
vt 0.105164 0.532227
vt 0.123169 0.566162
vt 0.128662 0.526855
vt 0.121033 0.517822
vt 0.130249 0.566895
vt 0.120789 0.560547
vt 0.123962 0.556641
vt 0.132568 0.562744
vt 0.131348 0.556641
vt 0.132080 0.548584
vt 0.143677 0.561035
vt 0.135864 0.539551
vt 0.147949 0.546631
vt 0.146118 0.526855
vt 0.147339 0.534668
vt 0.150635 0.523193
vt 0.154175 0.537109
vt 0.145752 0.514648
vt 0.141846 0.504883
vt 0.158081 0.524902
vt 0.162354 0.500000
vt 0.162842 0.517334
vt 0.157959 0.532471
vt 0.160400 0.540771
vt 0.165405 0.536377
vt 0.156006 0.547607
vt 0.180664 0.520508
vt 0.173340 0.536621
vt 0.156250 0.567871
vt 0.165649 0.547119
vt 0.166504 0.552002
vt 0.173096 0.575928
vt 0.172241 0.555664
vt 0.146851 0.589600
vt 0.166626 0.606689
vt 0.129395 0.601318
s 0
f 211/1/1 167/2/1 105/3/1
f 223/4/2 233/3/2 221/2/2
f 72/4/3 169/2/3 6/5/3
f 5/6/4 6/5/4 169/2/4
f 6/5/5 5/6/5 4/7/5
f 1/8/6 4/7/6 5/6/6
f 191/7/7 47/8/7 168/9/7
f 108/10/8 113/9/8 118/8/8
f 319/10/9 281/11/9 279/9/9
f 327/12/10 328/9/10 329/11/10
f 258/13/11 239/14/11 167/15/11
f 238/16/12 240/15/12 237/14/12
f 168/15/13 320/16/13 191/17/13
f 21/14/14 44/18/14 183/16/14
f 151/19/15 74/17/15 212/16/15
f 41/17/16 287/19/16 354/20/16
f 42/21/17 53/16/17 48/18/17
f 151/16/18 212/21/18 164/19/18
f 286/21/19 170/18/19 95/22/19
f 332/23/20 25/22/20 184/18/20
f 292/24/21 293/19/21 282/21/21
f 81/21/22 75/22/22 61/24/22
f 266/25/23 31/20/23 154/19/23
f 286/19/24 95/24/24 210/25/24
f 234/20/25 236/25/25 233/26/25
f 179/22/26 3/23/26 70/27/26
f 290/27/27 272/24/27 268/22/27
f 259/28/28 37/27/28 95/23/28
f 37/29/29 210/25/29 95/24/29
f 98/24/30 70/27/30 180/29/30
f 334/30/31 205/26/31 10/25/31
f 116/25/32 112/29/32 200/30/32
f 2/26/33 66/30/33 181/31/33
f 331/27/34 360/28/34 362/32/34
f 48/32/35 57/29/35 81/27/35
f 93/33/36 96/32/36 99/28/36
f 121/34/37 118/30/37 129/29/37
f 337/29/38 155/32/38 190/34/38
f 79/35/39 25/31/39 323/30/39
f 210/30/40 37/34/40 136/35/40
f 210/31/41 136/35/41 49/36/41
f 136/37/42 29/34/42 319/32/42
f 203/32/43 245/33/43 277/37/43
f 296/34/44 292/37/44 41/38/44
f 259/38/45 136/35/45 37/34/45
f 97/39/46 64/37/46 257/33/46
f 97/39/47 343/38/47 64/37/47
f 288/39/48 24/33/48 268/40/48
f 217/39/49 211/40/49 213/38/49
f 107/41/50 92/40/50 93/33/50
f 230/41/51 226/42/51 96/40/51
f 121/38/52 129/43/52 165/35/52
f 193/43/53 55/38/53 109/40/53
f 51/44/54 39/36/54 171/35/54
f 298/44/55 258/35/55 35/43/55
f 117/36/56 97/44/56 257/45/56
f 168/43/57 202/40/57 320/46/57
f 69/43/58 94/46/58 179/44/58
f 296/47/59 89/40/59 116/42/59
f 217/47/60 221/46/60 219/40/60
f 259/47/61 95/42/61 136/46/61
f 170/48/62 136/46/62 95/42/62
f 167/48/63 214/49/63 303/46/63
f 185/50/64 345/45/64 102/44/64
f 209/50/65 208/44/65 213/46/65
f 174/50/66 290/46/66 149/49/66
f 66/45/67 34/50/67 25/51/67
f 167/49/68 35/51/68 258/50/68
f 289/52/69 94/53/69 98/54/69
f 278/55/70 355/54/70 140/53/70
f 279/54/71 283/55/71 272/56/71
f 14/53/72 13/57/72 21/55/72
f 46/58/73 61/56/73 144/55/73
f 328/56/74 311/58/74 313/59/74
f 111/60/75 131/59/75 343/58/75
f 144/61/76 27/55/76 46/57/76
f 321/55/77 347/61/77 225/58/77
f 288/62/78 268/63/78 218/57/78
f 98/61/79 94/57/79 69/63/79
f 313/63/80 359/64/80 358/61/80
f 231/58/81 222/65/81 229/60/81
f 107/65/82 110/58/82 85/61/82
f 309/65/83 311/61/83 307/64/83
f 31/66/84 44/60/84 249/65/84
f 279/64/85 290/67/85 49/65/85
f 207/66/86 91/65/86 43/67/86
f 317/68/87 273/69/87 120/70/87
f 261/71/88 200/70/88 361/69/88
f 354/70/89 162/71/89 296/72/89
f 86/69/90 298/73/90 35/71/90
f 11/74/91 215/72/91 304/71/91
f 231/72/92 223/74/92 222/75/92
f 224/76/93 138/75/93 133/74/93
f 267/77/94 63/71/94 120/73/94
f 46/71/95 27/77/95 61/74/95
f 241/78/96 246/79/96 252/73/96
f 195/77/97 40/73/97 196/79/97
f 302/79/98 240/80/98 299/77/98
f 309/74/99 313/81/99 311/76/99
f 192/81/100 355/74/100 278/77/100
f 359/81/101 361/77/101 362/80/101
f 277/82/102 245/76/102 289/81/102
f 73/80/103 102/83/103 192/81/103
f 79/82/104 323/81/104 346/83/104
f 298/84/105 90/85/105 258/86/105
f 301/87/106 299/86/106 293/85/106
f 252/85/107 218/88/107 268/87/107
f 31/86/108 190/87/108 154/89/108
f 164/90/109 207/87/109 151/88/109
f 106/88/110 133/91/110 113/90/110
f 113/92/111 108/89/111 106/87/111
f 74/87/112 151/90/112 140/92/112
f 24/92/113 59/93/113 291/89/113
f 223/94/114 231/89/114 233/93/114
f 319/95/115 49/92/115 136/90/115
f 246/92/116 241/95/116 232/93/116
f 234/96/117 232/90/117 236/91/117
f 24/90/118 288/96/118 59/95/118
f 199/91/119 12/97/119 26/96/119
f 154/93/120 351/98/120 266/94/120
f 236/98/121 241/93/121 244/95/121
f 166/99/122 59/94/122 325/98/122
f 325/100/123 59/95/123 288/96/123
f 68/95/124 334/100/124 144/98/124
f 296/101/125 301/96/125 292/97/125
f 230/96/126 247/101/126 246/100/126
f 101/97/127 227/102/127 107/101/127
f 220/98/128 222/103/128 223/99/128
f 53/103/129 57/98/129 48/100/129
f 96/104/130 92/99/130 230/103/130
f 173/105/131 264/100/131 335/101/131
f 334/100/132 10/105/132 144/103/132
f 290/106/133 210/101/133 49/102/133
f 288/101/134 218/106/134 325/105/134
f 174/102/135 87/107/135 290/106/135
f 93/108/136 99/103/136 161/105/136
f 200/103/137 296/108/137 116/104/137
f 166/109/138 325/105/138 218/106/138
f 120/105/139 294/109/139 285/108/139
f 66/110/140 73/104/140 300/108/140
f 343/110/141 97/108/141 111/109/141
f 191/110/142 2/111/142 47/104/142
f 334/110/143 68/109/143 75/111/143
f 91/112/144 122/104/144 35/111/144
f 96/112/145 93/111/145 92/113/145
f 55/109/146 153/106/146 23/114/146
f 160/114/147 23/111/147 153/109/147
f 18/115/148 131/106/148 100/107/148
f 80/115/149 35/114/149 122/106/149
f 182/107/150 45/116/150 3/115/150
f 312/117/151 315/113/151 214/111/151
f 247/118/152 84/115/152 253/116/152
f 345/116/153 355/119/153 192/118/153
f 225/120/154 8/118/154 103/119/154
f 161/117/155 99/111/155 100/121/155
f 166/117/156 218/121/156 59/113/156
f 209/114/157 105/121/157 206/111/157
f 268/114/158 149/115/158 290/121/158
f 269/118/159 268/121/159 272/115/159
f 178/118/160 107/120/160 148/121/160
f 291/122/161 59/113/161 218/121/161
f 55/122/162 23/121/162 57/120/162
f 38/123/163 67/124/163 88/125/163
f 21/126/164 270/125/164 14/124/164
f 88/125/165 67/126/165 276/127/165
f 98/124/166 180/128/166 289/126/166
f 159/129/167 276/127/167 67/126/167
f 275/127/168 244/129/168 272/130/168
f 346/131/169 264/132/169 262/128/169
f 255/133/170 362/130/170 112/129/170
f 19/134/171 262/128/171 264/132/171
f 264/132/172 173/135/172 19/134/172
f 159/133/173 15/136/173 276/130/173
f 226/133/174 229/129/174 222/136/174
f 256/137/175 276/130/175 15/136/175
f 41/138/176 354/134/176 296/135/176
f 245/135/177 203/139/177 179/138/177
f 173/138/178 177/140/178 19/134/178
f 262/128/179 19/134/179 177/140/179
f 266/141/180 173/138/180 183/139/180
f 173/138/181 266/141/181 177/140/181
f 164/139/182 62/142/182 122/141/182
f 262/128/183 177/140/183 263/143/183
f 47/144/184 2/141/184 181/142/184
f 215/128/185 11/143/185 86/145/185
f 111/145/186 178/126/186 148/128/186
f 11/146/187 141/140/187 298/141/187
f 300/141/188 47/144/188 181/146/188
f 262/145/189 30/147/189 67/126/189
f 159/129/190 67/126/190 30/147/190
f 30/147/191 15/136/191 159/129/191
f 262/145/192 263/148/192 30/147/192
f 126/148/193 257/145/193 64/143/193
f 175/149/194 30/147/194 263/148/194
f 351/150/195 263/143/195 177/140/195
f 177/140/196 266/146/196 351/150/196
f 61/148/197 68/143/197 144/151/197
f 263/143/198 351/150/198 353/152/198
f 353/152/199 356/151/199 263/143/199
f 175/149/200 263/148/200 360/153/200
f 356/151/201 360/153/201 263/148/201
f 13/149/202 14/154/202 9/147/202
f 52/149/203 284/153/203 357/154/203
f 15/136/204 30/147/204 175/154/204
f 360/153/205 356/151/205 358/155/205
f 175/154/206 145/156/206 15/136/206
f 352/157/207 358/155/207 356/151/207
f 356/151/208 353/152/208 352/157/208
f 16/158/209 15/136/209 145/156/209
f 15/136/210 16/158/210 256/137/210
f 349/159/211 203/137/211 321/158/211
f 145/156/212 175/154/212 255/160/212
f 16/158/213 250/161/213 256/159/213
f 324/162/214 256/159/214 250/161/214
f 145/156/215 82/163/215 16/158/215
f 145/156/216 255/160/216 82/163/216
f 16/158/217 58/164/217 250/161/217
f 58/164/218 16/158/218 82/163/218
f 337/161/219 348/165/219 155/162/219
f 194/166/220 197/162/220 165/165/220
f 142/167/221 250/161/221 58/164/221
f 250/165/222 33/168/222 324/166/222
f 204/169/223 324/166/223 33/168/223
f 104/161/224 194/170/224 165/165/224
f 47/168/225 12/171/225 168/169/225
f 275/172/226 272/169/226 283/171/226
f 32/172/227 338/171/227 276/173/227
f 250/165/228 254/174/228 33/168/228
f 254/174/229 250/165/229 142/170/229
f 203/168/230 349/175/230 182/171/230
f 239/175/231 45/168/231 18/174/231
f 232/176/232 230/173/232 246/171/232
f 24/173/233 291/176/233 160/177/233
f 345/178/234 192/171/234 102/175/234
f 296/171/235 162/178/235 89/176/235
f 119/179/236 204/177/236 33/176/236
f 103/177/237 321/179/237 225/180/237
f 90/181/238 103/176/238 8/178/238
f 33/176/239 254/181/239 119/179/239
f 339/178/240 183/175/240 335/182/240
f 104/183/241 51/180/241 194/179/241
f 245/182/242 179/184/242 94/178/242
f 90/181/243 298/178/243 141/184/243
f 123/185/244 322/179/244 280/181/244
f 149/179/245 153/185/245 174/183/245
f 201/184/246 248/186/246 254/181/246
f 335/185/247 337/181/247 339/186/247
f 248/186/248 201/184/248 204/187/248
f 258/188/249 36/187/249 239/184/249
f 68/184/250 61/182/250 75/188/250
f 204/187/251 119/189/251 248/186/251
f 326/190/252 32/188/252 146/182/252
f 265/190/253 317/182/253 120/191/253
f 22/192/254 297/186/254 27/189/254
f 301/186/255 293/192/255 292/185/255
f 99/193/256 106/191/256 108/182/256
f 10/193/257 76/182/257 144/175/257
f 204/191/258 201/193/258 324/194/258
f 182/175/259 18/174/259 45/193/259
f 65/195/260 324/194/260 201/193/260
f 65/195/261 201/193/261 254/174/261
f 102/194/262 332/195/262 38/196/262
f 254/174/263 142/170/263 65/195/263
f 203/197/264 277/196/264 347/195/264
f 348/197/265 337/195/265 333/170/265
f 324/196/266 65/197/266 256/198/266
f 316/170/267 214/199/267 315/197/267
f 38/170/268 184/161/268 67/199/268
f 267/167/269 120/199/269 273/161/269
f 128/200/270 256/198/270 65/197/270
f 362/198/271 361/200/271 200/201/271
f 113/167/272 133/202/272 118/199/272
f 146/203/273 256/201/273 128/200/273
f 256/201/274 146/203/274 276/204/274
f 307/202/275 310/167/275 235/205/275
f 42/164/276 48/205/276 61/167/276
f 308/206/277 309/199/277 305/202/277
f 106/202/278 96/205/278 226/206/278
f 238/205/279 242/164/279 240/207/279
f 82/163/280 116/207/280 58/164/280
f 89/208/281 142/206/281 58/205/281
f 202/207/282 151/163/282 207/209/282
f 116/207/283 89/210/283 58/205/283
f 305/208/284 307/205/284 237/210/284
f 180/207/285 70/209/285 45/210/285
f 89/208/286 152/211/286 142/206/286
f 246/208/287 253/210/287 252/211/287
f 118/206/288 197/212/288 108/199/288
f 227/212/289 10/206/289 110/211/289
f 34/213/290 323/199/290 25/212/290
f 129/212/291 118/211/291 133/213/291
f 152/213/292 65/197/292 142/199/292
f 192/213/293 278/214/293 199/197/293
f 41/214/294 294/213/294 63/211/294
f 128/200/295 65/197/295 152/214/295
f 178/211/296 117/215/296 101/214/296
f 162/215/297 152/211/297 89/210/297
f 152/214/298 341/216/298 128/200/298
f 341/216/299 152/214/299 162/215/299
f 60/217/300 128/200/300 341/216/300
f 128/200/301 60/217/301 146/203/301
f 70/215/302 3/218/302 45/216/302
f 333/215/303 337/210/303 335/218/303
f 60/217/304 341/216/304 157/219/304
f 228/220/305 341/216/305 162/218/305
f 228/220/306 157/219/306 341/216/306
f 60/217/307 157/219/307 143/221/307
f 143/221/308 146/203/308 60/217/308
f 157/219/309 228/220/309 124/222/309
f 125/223/310 143/221/310 157/219/310
f 157/219/311 124/222/311 125/223/311
f 354/224/312 124/222/312 228/220/312
f 187/225/313 131/223/313 18/222/313
f 78/224/314 336/220/314 62/226/314
f 162/218/315 354/226/315 228/220/315
f 124/222/316 354/224/316 134/227/316
f 131/222/317 148/227/317 161/225/317
f 317/224/318 304/226/318 215/228/318
f 287/228/319 134/227/319 354/224/319
f 125/223/320 124/225/320 274/229/320
f 125/223/321 274/229/321 143/221/321
f 28/230/322 124/225/322 134/227/322
f 318/231/323 315/221/323 311/229/323
f 124/225/324 28/230/324 147/232/324
f 147/232/325 274/229/325 124/225/325
f 285/231/326 282/233/326 283/221/326
f 146/203/327 143/221/327 326/233/327
f 143/231/328 274/229/328 169/1/328
f 143/231/329 169/1/329 326/233/329
f 189/234/330 169/1/330 274/229/330
f 274/229/331 147/232/331 189/234/331
f 72/3/332 326/233/332 169/1/332
f 216/1/333 213/234/333 220/2/333
f 72/3/334 338/235/334 326/233/334
f 115/236/335 169/2/335 189/234/335
f 131/3/336 187/4/336 349/235/336
f 169/2/337 115/236/337 5/6/337
f 243/237/338 72/4/338 163/238/338
f 229/239/339 230/6/339 232/236/339
f 221/6/340 217/239/340 216/8/340
f 56/240/341 163/238/341 72/4/341
f 163/238/342 56/240/342 344/241/342
f 72/4/343 6/5/343 56/240/343
f 249/242/344 44/241/344 9/240/344
f 344/242/345 56/240/345 6/5/345
f 285/241/346 294/242/346 282/243/346
f 155/244/347 351/235/347 154/4/347
f 114/245/348 127/243/348 344/242/348
f 344/242/349 6/5/349 114/245/349
f 186/243/350 273/245/350 78/246/350
f 4/7/351 114/245/351 6/5/351
f 38/247/352 88/248/352 338/244/352
f 281/235/353 319/244/353 71/248/353
f 88/248/354 276/249/354 338/235/354
f 191/245/355 34/7/355 2/250/355
f 34/250/356 191/246/356 323/245/356
f 185/9/357 338/250/357 306/7/357
f 84/9/358 81/12/358 253/250/358
f 139/250/359 208/251/359 137/246/359
f 53/251/360 42/250/360 109/12/360
f 343/252/361 349/246/361 321/251/361
f 80/252/362 86/251/362 35/253/362
f 36/251/363 90/12/363 8/254/363
f 41/254/364 292/253/364 294/251/364
f 158/255/365 114/254/365 4/12/365
f 4/12/366 1/11/366 158/255/366
f 114/254/367 188/256/367 127/253/367
f 50/257/368 127/253/368 188/256/368
f 352/257/369 348/256/369 328/258/369
f 188/256/370 114/254/370 158/259/370
f 323/255/371 329/259/371 346/254/371
f 251/260/372 316/258/372 43/256/372
f 340/256/373 243/259/373 140/260/373
f 101/258/374 29/260/374 227/261/374
f 284/262/375 283/261/375 281/260/375
f 138/261/376 139/262/376 132/263/376
f 235/264/377 219/260/377 221/259/377
f 103/260/378 304/264/378 64/262/378
f 244/265/379 242/263/379 236/262/379
f 257/263/380 357/265/380 117/266/380
f 78/267/381 62/262/381 271/264/381
f 112/262/382 82/267/382 255/265/382
f 219/264/383 235/259/383 310/268/383
f 132/264/384 129/268/384 138/267/384
f 18/269/385 182/268/385 187/259/385
f 184/259/386 38/255/386 332/269/386
f 327/270/387 318/267/387 328/268/387
f 73/271/388 332/269/388 102/255/388
f 137/271/389 194/255/389 171/11/389
f 235/268/390 237/269/390 307/272/390
f 229/268/391 232/272/391 231/270/391
f 277/269/392 289/271/392 45/273/392
f 230/273/393 229/272/393 226/269/393
f 158/271/394 1/11/394 172/274/394
f 172/274/395 130/273/395 158/271/395
f 150/275/396 172/274/396 1/11/396
f 205/11/397 85/10/397 110/275/397
f 130/273/398 172/274/398 260/276/398
f 112/273/399 116/276/399 82/272/399
f 238/277/400 236/275/400 242/10/400
f 184/10/401 79/8/401 262/277/401
f 262/275/402 67/278/402 184/274/402
f 238/275/403 233/277/403 236/278/403
f 139/279/404 220/276/404 208/274/404
f 207/279/405 320/274/405 202/278/405
f 106/280/406 99/277/406 96/8/406
f 150/280/407 1/8/407 5/239/407
f 83/281/408 172/278/408 150/277/408
f 85/280/409 92/282/409 107/277/409
f 187/281/410 182/277/410 349/282/410
f 5/239/411 342/283/411 150/280/411
f 83/282/412 150/280/412 342/283/412
f 183/283/413 173/239/413 335/284/413
f 115/236/414 342/284/414 5/239/414
f 342/283/415 350/285/415 83/282/415
f 342/284/416 115/236/416 77/286/416
f 189/234/417 77/286/417 115/236/417
f 77/286/418 189/234/418 147/232/418
f 129/284/419 132/287/419 137/283/419
f 43/285/420 318/283/420 320/287/420
f 77/286/421 212/288/421 342/284/421
f 350/287/422 342/284/422 212/288/422
f 147/232/423 271/289/423 77/286/423
f 212/288/424 77/286/424 271/289/424
f 271/289/425 147/232/425 28/230/425
f 350/287/426 212/288/426 74/290/426
f 52/287/427 357/290/427 126/285/427
f 28/230/428 186/291/428 271/289/428
f 28/230/429 134/227/429 186/291/429
f 253/292/430 291/282/430 218/285/430
f 279/282/431 272/292/431 290/281/431
f 267/293/432 186/291/432 134/227/432
f 134/227/433 287/228/433 267/293/433
f 350/285/434 295/294/434 83/292/434
f 295/294/435 350/285/435 74/290/435
f 66/295/436 332/281/436 314/292/436
f 74/290/437 163/296/437 295/294/437
f 163/296/438 74/290/438 243/297/438
f 344/298/439 295/294/439 163/296/439
f 140/299/440 243/297/440 74/290/440
f 227/294/441 76/298/441 10/300/441
f 269/300/442 272/292/442 244/294/442
f 42/292/443 27/300/443 297/295/443
f 127/301/444 295/300/444 344/298/444
f 23/300/445 160/301/445 291/302/445
f 283/302/446 279/295/446 281/300/446
f 138/303/447 224/302/447 222/301/447
f 144/303/448 22/304/448 27/302/448
f 295/302/449 176/305/449 83/295/449
f 176/305/450 295/302/450 127/304/450
f 270/295/451 9/306/451 14/281/451
f 310/306/452 311/295/452 315/305/452
f 172/278/453 83/281/453 176/306/453
f 257/305/454 126/304/454 357/307/454
f 35/308/455 303/307/455 91/304/455
f 111/306/456 117/305/456 178/309/456
f 155/306/457 154/309/457 190/278/457
f 270/307/458 21/309/458 339/305/458
f 205/279/459 75/278/459 85/309/459
f 127/308/460 50/310/460 176/307/460
f 176/309/461 260/311/461 172/279/461
f 70/307/462 98/312/462 69/309/462
f 275/312/463 283/307/463 282/310/463
f 260/311/464 176/309/464 50/312/464
f 72/276/465 306/279/465 338/311/465
f 190/312/466 339/310/466 337/313/466
f 339/312/467 190/313/467 270/311/467
f 348/314/468 352/313/468 353/310/468
f 361/314/469 302/315/469 261/313/469
f 219/276/470 310/311/470 312/316/470
f 101/316/471 107/272/471 178/276/471
f 208/317/472 209/311/472 206/313/472
f 242/317/473 282/316/473 293/311/473
f 349/272/474 343/316/474 131/318/474
f 3/318/475 179/270/475 203/272/475
f 351/316/476 155/317/476 348/319/476
f 66/319/477 2/318/477 34/316/477
f 161/317/478 100/313/478 131/320/478
f 100/320/479 108/319/479 105/317/479
f 206/321/480 137/313/480 208/315/480
f 55/321/481 57/320/481 53/313/481
f 36/321/482 135/315/482 239/322/482
f 117/323/483 111/322/483 97/315/483
f 268/320/484 269/321/484 252/324/484
f 312/322/485 214/324/485 219/321/485
f 160/319/486 198/320/486 153/325/486
f 255/324/487 331/325/487 362/320/487
f 336/324/488 78/322/488 273/326/488
f 273/324/489 186/326/489 267/325/489
f 24/322/490 160/323/490 149/327/490
f 165/327/491 197/326/491 121/322/491
f 244/328/492 241/327/492 269/323/492
f 49/328/493 319/329/493 279/327/493
f 318/325/494 43/330/494 315/319/494
f 9/318/495 270/319/495 249/330/495
f 63/331/496 287/327/496 41/329/496
f 322/330/497 123/332/497 280/318/497
f 158/270/498 130/318/498 188/332/498
f 332/331/499 66/333/499 25/327/499
f 235/326/500 221/327/500 233/333/500
f 347/331/501 321/329/501 203/334/501
f 50/331/502 196/334/502 260/333/502
f 357/335/503 71/336/503 117/329/503
f 316/326/504 315/333/504 43/337/504
f 251/337/505 303/325/505 316/326/505
f 196/338/506 50/329/506 195/336/506
f 51/338/507 171/334/507 194/329/507
f 336/338/508 215/336/508 7/339/508
f 81/340/509 61/339/509 48/336/509
f 216/340/510 220/341/510 221/339/510
f 214/339/511 316/342/511 303/338/511
f 110/342/512 107/339/512 227/341/512
f 306/334/513 72/338/513 340/342/513
f 29/341/514 101/343/514 71/342/514
f 7/342/515 62/344/515 336/334/515
f 167/344/516 211/342/516 214/343/516
f 243/345/517 340/334/517 72/344/517
f 44/345/518 31/333/518 266/334/518
f 334/344/519 75/343/519 205/346/519
f 265/344/520 284/346/520 317/345/520
f 137/347/521 197/346/521 194/343/521
f 260/333/522 196/345/522 40/348/522
f 13/348/523 9/337/523 44/333/523
f 265/349/524 285/345/524 284/346/524
f 242/346/525 244/347/525 282/349/525
f 215/349/526 336/348/526 317/345/526
f 264/350/527 346/349/527 329/347/527
f 331/350/528 255/351/528 175/349/528
f 335/348/529 329/349/529 333/351/529
f 107/351/530 161/352/530 148/348/530
f 53/353/531 109/348/531 55/352/531
f 38/348/532 185/353/532 102/337/532
f 284/353/533 281/352/533 357/354/533
f 195/355/534 188/354/534 40/352/534
f 328/355/535 313/356/535 352/354/535
f 236/357/536 232/337/536 241/353/536
f 40/337/537 130/357/537 260/325/537
f 138/330/538 222/325/538 220/357/538
f 135/354/539 8/358/539 277/353/539
f 130/357/540 40/353/540 188/358/540
f 329/359/541 335/354/541 264/356/541
f 234/354/542 231/359/542 232/358/542
f 275/356/543 282/360/543 244/359/543
f 294/357/544 120/361/544 63/330/544
f 223/362/545 221/359/545 220/360/545
f 165/360/546 39/363/546 104/362/546
f 118/364/547 121/362/547 197/363/547
f 103/365/548 141/330/548 304/361/548
f 300/330/549 26/365/549 47/332/549
f 305/361/550 302/357/550 308/366/550
f 333/361/551 329/366/551 328/365/551
f 202/358/552 12/366/552 278/357/552
f 277/367/553 45/365/553 135/366/553
f 307/366/554 305/358/554 309/367/554
f 153/367/555 198/332/555 160/365/555
f 311/332/556 328/367/556 318/358/556
f 191/368/557 327/358/557 323/359/557
f 78/358/558 271/368/558 186/332/558
f 45/359/559 239/362/559 135/368/559
f 195/362/560 50/364/560 188/369/560
f 66/369/561 300/368/561 181/362/561
f 213/266/562 216/369/562 217/364/562
f 299/369/563 261/266/563 302/265/563
f 301/370/564 296/332/564 200/368/564
f 301/332/565 200/370/565 261/270/565
f 100/267/566 105/270/566 167/370/566
f 240/370/567 242/265/567 293/267/567
f 338/368/568 185/371/568 38/370/568
f 306/370/569 345/372/569 185/265/569
f 119/372/570 156/370/570 248/371/570
f 238/371/571 237/368/571 233/373/571
f 283/371/572 284/373/572 285/372/572
f 183/369/573 339/373/573 21/368/573
f 75/374/574 81/265/574 85/372/574
f 299/265/575 301/374/575 261/369/575
f 276/374/576 146/372/576 32/373/576
f 63/373/577 267/369/577 287/374/577
f 92/375/578 85/376/578 247/377/578
f 8/378/579 135/377/579 36/376/579
f 293/376/580 299/379/580 240/378/580
f 122/377/581 7/378/581 80/380/581
f 200/381/582 112/378/582 362/379/582
f 137/379/583 132/382/583 139/381/583
f 320/383/584 207/381/584 43/382/584
f 39/384/585 51/380/585 104/378/585
f 355/378/586 306/381/586 340/384/586
f 202/385/587 140/380/587 151/386/587
f 202/384/588 168/386/588 12/380/588
f 345/386/589 306/384/589 355/387/589
f 329/381/590 323/383/590 327/388/590
f 297/388/591 109/384/591 42/381/591
f 278/388/592 140/387/592 202/384/592
f 12/389/593 47/388/593 26/383/593
f 107/387/594 93/388/594 161/390/594
f 164/389/595 122/390/595 207/388/595
f 346/391/596 262/392/596 79/393/596
f 220/394/597 139/393/597 138/392/597
f 156/392/598 119/395/598 254/394/598
f 129/393/599 137/394/599 171/396/599
f 133/397/600 138/394/600 129/395/600
f 12/395/601 199/398/601 278/397/601
f 108/399/602 100/396/602 99/394/602
f 71/394/603 319/397/603 29/399/603
f 253/396/604 23/399/604 291/400/604
f 353/401/605 351/397/605 348/398/605
f 141/398/606 103/402/606 90/401/606
f 302/403/607 305/399/607 240/397/607
f 237/397/608 240/401/608 305/403/608
f 265/404/609 120/400/609 285/399/609
f 153/399/610 149/403/610 160/404/610
f 300/400/611 73/404/611 192/405/611
f 226/406/612 222/403/612 224/401/612
f 167/407/613 303/405/613 35/404/613
f 36/405/614 258/407/614 90/408/614
f 217/409/615 214/401/615 211/402/615
f 332/401/616 73/409/616 314/406/616
f 235/402/617 233/410/617 237/409/617
f 197/411/618 206/408/618 105/407/618
f 315/408/619 312/411/619 310/412/619
f 62/404/620 164/413/620 212/407/620
f 52/414/621 126/412/621 317/411/621
f 239/412/622 18/414/622 100/415/622
f 179/407/623 70/416/623 69/411/623
f 298/416/624 86/407/624 11/413/624
f 219/411/625 214/417/625 217/414/625
f 84/417/626 85/411/626 81/416/626
f 249/413/627 270/404/627 190/418/627
f 7/413/628 122/418/628 62/416/628
f 86/419/629 80/418/629 7/404/629
f 212/419/630 271/404/630 62/403/630
f 213/420/631 208/416/631 220/418/631
f 253/418/632 81/419/632 57/420/632
f 3/417/633 203/416/633 182/421/633
f 321/420/634 103/421/634 64/416/634
f 52/421/635 317/414/635 284/417/635
f 358/422/636 352/420/636 313/419/636
f 190/420/637 31/422/637 249/421/637
f 25/419/638 79/403/638 184/422/638
f 358/414/639 362/421/639 360/422/639
f 144/406/640 297/422/640 22/403/640
f 277/422/641 225/423/641 347/414/641
f 321/406/642 64/424/642 343/422/642
f 251/423/643 43/422/643 91/424/643
f 310/424/644 307/406/644 311/409/644
f 205/425/645 110/414/645 10/423/645
f 17/425/646 109/415/646 297/414/646
f 297/423/647 144/424/647 76/426/647
f 297/423/648 76/426/648 17/425/648
f 289/425/649 180/427/649 45/415/649
f 292/427/650 282/425/650 294/426/650
f 149/428/651 268/415/651 24/427/651
f 86/429/652 7/426/652 215/424/652
f 359/424/653 308/409/653 361/429/653
f 171/427/654 165/430/654 129/428/654
f 251/431/655 91/428/655 303/430/655
f 266/426/656 183/432/656 44/427/656
f 61/430/657 27/427/657 42/432/657
f 174/432/658 153/426/658 55/433/658
f 91/429/659 207/433/659 122/426/659
f 218/432/660 252/434/660 253/430/660
f 17/432/661 76/433/661 330/434/661
f 32/430/662 326/435/662 338/431/662
f 11/435/663 304/430/663 141/434/663
f 148/436/664 131/431/664 111/435/664
f 192/437/665 199/434/665 300/433/665
f 17/435/666 20/438/666 109/436/666
f 331/439/667 175/436/667 360/438/667
f 211/434/668 105/440/668 209/435/668
f 20/438/669 193/441/669 109/439/669
f 234/442/670 233/439/670 231/441/670
f 137/440/671 206/434/671 197/443/671
f 126/437/672 64/443/672 304/434/672
f 20/444/673 17/435/673 330/440/673
f 273/440/674 317/443/674 336/444/674
f 318/444/675 327/445/675 320/435/675
f 333/438/676 328/435/676 348/445/676
f 85/446/677 84/444/677 247/443/677
f 191/445/678 320/444/678 327/447/678
f 359/446/679 313/447/679 308/444/679
f 340/438/680 140/445/680 355/448/680
f 13/447/681 44/448/681 21/445/681
f 156/446/682 254/443/682 248/449/682
f 309/446/683 308/449/683 313/447/683
f 20/448/684 330/447/684 54/449/684
f 225/437/685 277/449/685 8/443/685
f 362/448/686 358/450/686 359/438/686
f 247/441/687 230/438/687 92/450/687
f 54/449/688 170/451/688 20/448/688
f 209/450/689 213/448/689 211/451/689
f 193/441/690 20/450/690 123/452/690
f 322/453/691 123/452/691 20/450/691
f 20/450/692 170/451/692 322/453/692
f 117/452/693 71/454/693 101/441/693
f 100/455/694 167/453/694 239/451/694
f 55/456/695 193/441/695 174/454/695
f 73/441/696 66/456/696 314/442/696
f 224/457/697 106/442/697 226/456/697
f 71/454/698 357/458/698 281/456/698
f 133/457/699 106/456/699 224/459/699
f 87/460/700 193/456/700 123/458/700
f 87/460/701 174/459/701 193/456/701
f 123/458/702 322/461/702 87/460/702
f 23/455/703 253/462/703 57/461/703
f 253/463/704 246/461/704 247/462/704
f 286/463/705 87/460/705 322/461/705
f 286/462/706 322/455/706 170/464/706
f 94/451/707 289/464/707 245/455/707
f 199/451/708 26/449/708 300/464/708
f 87/460/709 286/463/709 290/465/709
f 210/466/710 290/465/710 286/463/710
f 39/467/711 165/464/711 171/449/711
f 302/449/712 361/437/712 308/467/712
f 304/468/713 317/464/713 126/469/713
f 54/467/714 136/469/714 170/464/714
f 54/467/715 29/470/715 136/469/715
f 105/471/716 108/469/716 197/470/716
f 76/472/717 54/467/717 330/437/717
f 29/470/718 54/467/718 227/473/718
f 76/472/719 227/473/719 54/467/719
f 252/472/720 269/437/720 241/474/720
