# Blender 3.6.1
# www.blender.org
mtllib pineapple.mtl
o Sphere.067
v -0.003536 0.721341 0.302485
v -0.003536 0.557171 0.350349
v -0.003536 0.218297 0.302485
v -0.003536 0.084465 0.212529
v -0.072446 0.942525 0.072868
v -0.133044 0.855173 0.177828
v -0.178022 0.721341 0.255731
v -0.201954 0.557171 0.297183
v -0.201954 0.382466 0.297183
v -0.178022 0.218297 0.255731
v -0.133044 0.084465 0.177828
v -0.072446 0.016984 0.072868
v -0.122891 0.942525 0.022423
v -0.227851 0.855173 0.083021
v -0.305754 0.721341 0.127999
v -0.347206 0.557171 0.151931
v -0.347206 0.382466 0.151931
v -0.305754 0.218297 0.127999
v -0.227851 0.084465 0.083021
v -0.122891 0.016984 0.022423
v -0.141356 0.942525 -0.046487
v -0.262552 0.855173 -0.046487
v -0.352508 0.721341 -0.046487
v -0.400372 0.557171 -0.046487
v -0.400372 0.382466 -0.046487
v -0.352508 0.218297 -0.046487
v -0.262552 0.084465 -0.046487
v -0.141356 0.016984 -0.046487
v -0.122891 0.942525 -0.115397
v -0.227851 0.855173 -0.175995
v -0.305754 0.721341 -0.220973
v -0.347206 0.557171 -0.244905
v -0.347206 0.382466 -0.244905
v -0.305754 0.218297 -0.220973
v -0.227851 0.084465 -0.175995
v -0.122891 0.016984 -0.115397
v -0.072446 0.942525 -0.165842
v -0.133044 0.855173 -0.270801
v -0.178022 0.721341 -0.348705
v -0.201954 0.557171 -0.390157
v -0.201954 0.382466 -0.390157
v -0.178022 0.218297 -0.348705
v -0.133044 0.084465 -0.270801
v -0.072446 0.016984 -0.165842
v -0.003536 0.942525 -0.184306
v -0.003536 0.855173 -0.305503
v -0.003536 0.721341 -0.395458
v -0.003536 0.557171 -0.443322
v -0.003536 0.382466 -0.443322
v -0.003536 0.218297 -0.395458
v -0.003536 0.084465 -0.305503
v -0.003536 0.016984 -0.184306
v 0.065374 0.942525 -0.165842
v 0.125972 0.855173 -0.270801
v 0.170950 0.721341 -0.348705
v 0.194882 0.557171 -0.390156
v 0.194882 0.382466 -0.390156
v 0.170950 0.218297 -0.348705
v 0.125972 0.084465 -0.270801
v 0.065374 0.016984 -0.165842
v 0.115819 0.942525 -0.115396
v 0.220778 0.855173 -0.175995
v 0.298682 0.721341 -0.220972
v 0.340134 0.557171 -0.244904
v 0.340134 0.382466 -0.244904
v 0.298682 0.218297 -0.220972
v 0.220778 0.084465 -0.175995
v 0.115819 0.016984 -0.115396
v 0.134283 0.942525 -0.046487
v 0.255480 0.855173 -0.046487
v 0.345435 0.721341 -0.046487
v 0.393299 0.557171 -0.046487
v 0.393299 0.382466 -0.046487
v 0.345435 0.218297 -0.046487
v 0.255480 0.084465 -0.046487
v 0.134283 0.016984 -0.046487
v 0.115819 0.942525 0.022423
v 0.220778 0.855173 0.083021
v 0.298682 0.721341 0.127999
v 0.340133 0.557171 0.151931
v 0.340133 0.382466 0.151931
v 0.298682 0.218297 0.127999
v 0.220778 0.084465 0.083021
v 0.115819 0.016984 0.022423
v 0.065373 0.942525 0.072868
v 0.125972 0.855173 0.177828
v 0.170949 0.721341 0.255731
v 0.194881 0.557171 0.297183
v 0.194881 0.382466 0.297183
v 0.170949 0.218297 0.255731
v 0.125972 0.084465 0.177828
v 0.065374 0.016984 0.072868
v -0.003536 0.942525 0.091333
v -0.003536 0.855173 0.212529
v -0.003536 0.382466 0.350349
v -0.003536 0.016984 0.091333
v 0.101272 0.644524 -0.437637
v -0.115532 0.469819 -0.464462
v 0.080379 0.798157 0.266692
v -0.054311 0.912188 0.143008
v -0.142256 0.912188 0.092233
v -0.087452 0.798157 0.266692
v 0.047239 0.912188 0.143008
v 0.135183 0.912188 0.092233
v 0.225726 0.798157 0.182776
v 0.185958 0.912188 0.004288
v 0.185958 0.912188 -0.097262
v 0.282806 0.644524 0.239855
v 0.309642 0.798157 0.037429
v -0.108344 0.644524 -0.437637
v 0.309642 0.798157 -0.130403
v 0.135184 0.912188 -0.185206
v -0.289878 0.644524 -0.332829
v -0.087452 0.798157 -0.359665
v -0.394687 0.644524 -0.151296
v -0.232799 0.798157 -0.275750
v -0.316714 0.798157 -0.130403
v -0.289879 0.644524 0.239855
v -0.193031 0.912188 -0.097262
v -0.316715 0.798157 0.037429
v -0.108345 0.644524 0.344664
v -0.232799 0.798157 0.182776
v -0.193031 0.912188 0.004288
v 0.387614 0.644524 -0.151295
v 0.225726 0.798157 -0.275749
v 0.047239 0.912188 -0.235981
v -0.054311 0.912188 -0.235981
v 0.080380 0.798157 -0.359665
v -0.142256 0.912188 -0.185207
v 0.387614 0.644524 0.058322
v 0.101272 0.644524 0.344664
v -0.108345 0.295114 0.344664
v -0.309515 0.469819 0.259492
v -0.394687 0.644524 0.058322
v -0.316714 0.141480 -0.130403
v -0.394687 0.295114 0.058322
v -0.232799 0.141480 0.182776
v -0.289878 0.295114 0.239855
v -0.421511 0.469819 -0.158483
v -0.421511 0.469819 0.065509
v -0.309515 0.469819 -0.352466
v -0.394687 0.295114 -0.151295
v -0.289878 0.295113 -0.332829
v 0.101273 0.295113 -0.437637
v -0.232799 0.141480 -0.275749
v 0.108460 0.469819 -0.464462
v -0.108344 0.295113 -0.437637
v 0.080380 0.141480 -0.359665
v -0.087452 0.141480 -0.359665
v 0.282806 0.644524 -0.332829
v 0.302443 0.469819 -0.352466
v 0.282806 0.295114 -0.332829
v 0.414439 0.469819 -0.158483
v 0.225726 0.141480 -0.275749
v 0.309642 0.141480 -0.130402
v 0.387614 0.295113 -0.151295
v 0.302443 0.469819 0.259492
v 0.414439 0.469819 0.065509
v 0.225726 0.141480 0.182776
v 0.387614 0.295114 0.058322
v 0.282806 0.295114 0.239855
v 0.309642 0.141480 0.037429
v 0.080380 0.141480 0.266692
v -0.087452 0.141480 0.266691
v -0.115533 0.469819 0.371488
v 0.108460 0.469819 0.371488
v 0.101272 0.295113 0.344664
v -0.316715 0.141480 0.037429
v 0.135184 0.040420 -0.185206
v -0.142256 0.040420 -0.185206
v 0.047239 0.040420 -0.235981
v -0.142256 0.040420 0.092233
v -0.054311 0.040420 0.143008
v -0.193031 0.040420 0.004288
v 0.185958 0.040420 0.004288
v 0.047239 0.040420 0.143008
v 0.135183 0.040420 0.092233
v -0.054311 0.040420 -0.235981
v -0.193031 0.040420 -0.097262
v 0.185958 0.040420 -0.097262
v 0.479988 1.821158 0.385552
v 0.199742 1.457732 -0.012331
v 0.033362 1.457732 0.163746
v 0.087223 1.138805 -0.089825
v -0.079156 1.138805 0.086253
v -0.031491 1.063924 -0.001153
v 0.051870 1.430351 0.076110
v -0.264961 1.206671 0.267562
v -0.023320 1.004141 0.099996
v -0.152463 1.004141 -0.004294
v 0.023453 0.753059 0.037666
v -0.105690 0.753059 -0.066623
v -0.043653 0.701750 -0.016525
v -0.091998 0.952831 0.044535
v 0.343372 1.821157 -0.612259
v -0.028572 1.457732 -0.298401
v 0.161337 1.457732 -0.148001
v -0.095964 1.138805 -0.179557
v 0.093945 1.138805 -0.029156
v 0.002717 1.063924 -0.069022
v 0.072421 1.430350 -0.158800
v -0.434337 1.821157 0.510737
v -0.062393 1.457732 0.196880
v -0.252302 1.457732 0.046479
v 0.004999 1.138805 0.078036
v -0.184910 1.138805 -0.072365
v -0.093682 1.063924 -0.032499
v -0.163386 1.430350 0.057278
v -0.570953 1.821157 -0.487073
v -0.290707 1.457732 -0.089190
v -0.124327 1.457732 -0.265268
v -0.178188 1.138805 -0.011697
v -0.011809 1.138805 -0.187775
v -0.059474 1.063924 -0.100369
v -0.142835 1.430350 -0.177632
v 0.475136 1.484035 -0.145337
v 0.099443 1.202479 -0.177159
v 0.121086 1.202479 0.009269
v -0.002580 0.955396 -0.148972
v 0.019063 0.955396 0.037455
v -0.009074 0.897384 -0.034360
v 0.078293 1.181265 -0.045357
v -0.566102 1.484035 0.043816
v -0.190408 1.202479 0.075637
v -0.212051 1.202479 -0.110790
v -0.088385 0.955396 0.047450
v -0.110028 0.955396 -0.138977
v -0.081891 0.897384 -0.067161
v -0.169258 1.181265 -0.056165
v 0.003360 1.484035 0.476120
v 0.067803 1.202479 0.104630
v -0.119801 1.202479 0.109942
v 0.048616 0.955396 0.000538
v -0.138988 0.955396 0.005851
v -0.064994 0.897384 -0.015920
v -0.061653 1.181265 0.072073
v -0.094324 1.484035 -0.577641
v -0.158768 1.202479 -0.206151
v 0.028836 1.202479 -0.211464
v -0.139581 0.955396 -0.102059
v 0.048023 0.955396 -0.107372
v -0.025971 0.897384 -0.085601
v -0.029311 1.181265 -0.173594
v 0.214963 1.212250 -0.344982
v -0.026678 1.004141 -0.177416
v 0.102465 1.004141 -0.073126
v -0.073451 0.753059 -0.115086
v 0.055692 0.753059 -0.010796
v -0.006345 0.701750 -0.060895
v 0.042000 0.952831 -0.121955
v 0.499669 1.784843 0.404186
v 0.223081 1.429220 0.014046
v 0.061528 1.427885 0.182963
v 0.114740 1.123575 -0.057202
v -0.043072 1.123377 0.108909
v 0.000236 1.048442 0.027255
v 0.080855 1.406199 0.101207
v -0.283981 1.172983 0.291155
v -0.033806 0.979054 0.136247
v -0.186699 0.979546 0.012328
v 0.002749 0.739786 0.075726
v -0.139060 0.739932 -0.038919
v -0.071058 0.688328 0.016975
v -0.117683 0.931684 0.075300
v 0.360222 1.784842 -0.633488
v -0.004330 1.429220 -0.323950
v 0.178025 1.427885 -0.177734
v -0.065863 1.123574 -0.209812
v 0.113369 1.123376 -0.067078
v 0.028254 1.048442 -0.103105
v 0.094897 1.406199 -0.189863
v -0.451186 1.784842 0.531966
v -0.086635 1.429220 0.222429
v -0.268990 1.427885 0.076213
v -0.025102 1.123574 0.108291
v -0.204334 1.123376 -0.034443
v -0.119218 1.048442 0.001584
v -0.185862 1.406199 0.088341
v -0.590635 1.784842 -0.505707
v -0.314046 1.429220 -0.115567
v -0.152493 1.427885 -0.284484
v -0.205705 1.123574 -0.044319
v -0.047893 1.123376 -0.210430
v -0.091201 1.048442 -0.128777
v -0.171820 1.406199 -0.202729
v 0.502062 1.447720 -0.148436
v 0.134650 1.173966 -0.178082
v 0.153911 1.172632 0.000043
v 0.040098 0.940166 -0.149081
v 0.059612 0.939968 0.024376
v 0.033083 0.881902 -0.040404
v 0.116149 1.157113 -0.051429
v -0.593027 1.447720 0.046914
v -0.225615 1.173966 0.076561
v -0.244876 1.172632 -0.101565
v -0.131063 0.940166 0.047559
v -0.150577 0.939968 -0.125897
v -0.124048 0.881902 -0.061117
v -0.207115 1.157113 -0.050092
v 0.004100 1.447720 0.503213
v 0.065654 1.173966 0.139785
v -0.113471 1.172632 0.143446
v 0.045005 0.940166 0.043062
v -0.129493 0.939968 0.047386
v -0.062648 0.881902 0.026602
v -0.058903 1.157113 0.110314
v -0.095065 1.447720 -0.604734
v -0.156619 1.173966 -0.241306
v 0.022507 1.172632 -0.244967
v -0.135970 0.940166 -0.144584
v 0.038528 0.939968 -0.148907
v -0.028317 0.881902 -0.128124
v -0.032061 1.157113 -0.211836
v 0.234211 1.178891 -0.368856
v -0.016000 0.979237 -0.213736
v 0.136723 0.979718 -0.089955
v -0.052747 0.739786 -0.153146
v 0.089062 0.739932 -0.038501
v 0.021060 0.688328 -0.094394
v 0.067732 0.931841 -0.152787
vn -0.2512 -0.2404 0.9376
vn -0.0902 -0.9374 0.3365
vn 0.1855 -0.0000 0.9826
vn 0.1097 0.8063 0.5812
vn 0.1783 -0.2754 0.9446
vn 0.1548 0.5511 0.8199
vn -0.1579 -0.7923 0.5894
vn -0.3307 -0.0000 0.9437
vn -0.5133 0.6877 0.5133
vn -0.3179 -0.2754 0.9072
vn -0.6974 0.1650 0.6974
vn -0.2759 -0.5511 0.7875
vn -0.6864 -0.2404 0.6864
vn -0.2463 -0.9374 0.2463
vn -0.6327 0.5511 0.5440
vn -0.6327 -0.5511 0.5440
vn -0.9376 -0.2404 0.2512
vn -0.3738 -0.8700 0.3214
vn -0.7583 -0.0000 0.6520
vn -0.7012 0.6877 0.1879
vn -0.7289 -0.2754 0.6267
vn -0.4844 -0.8700 0.0914
vn -0.9826 -0.0000 0.1855
vn -0.5812 0.8063 0.1097
vn -0.9446 -0.2754 0.1783
vn -0.9527 0.1650 -0.2553
vn -0.8199 -0.5511 0.1548
vn -0.9376 -0.2404 -0.2512
vn -0.5299 -0.6621 -0.5299
vn -0.6974 0.1650 -0.6974
vn -0.7875 -0.5511 -0.2759
vn -0.6864 -0.2404 -0.6864
vn -0.4652 -0.8700 -0.1630
vn -0.9437 -0.0000 -0.3307
vn -0.5582 0.8063 -0.1956
vn -0.2512 -0.2404 -0.9376
vn -0.3214 -0.8700 -0.3738
vn -0.2253 -0.4923 -0.8408
vn -0.3856 0.8063 -0.4485
vn -0.6267 -0.2754 -0.7289
vn -0.5440 0.5511 -0.6327
vn -0.5440 -0.5511 -0.6327
vn 0.1879 0.6877 -0.7012
vn 0.1940 -0.6621 -0.7239
vn -0.1548 0.5511 -0.8199
vn -0.1548 -0.5511 -0.8199
vn -0.1783 0.2754 -0.9446
vn -0.0914 -0.8700 -0.4844
vn -0.1855 -0.0000 -0.9826
vn 0.2759 -0.5511 -0.7875
vn 0.3179 0.2754 -0.9072
vn 0.1630 -0.8700 -0.4652
vn 0.3307 -0.0000 -0.9437
vn 0.5133 0.6877 -0.5133
vn 0.3179 -0.2754 -0.9072
vn 0.6974 0.1650 -0.6974
vn 0.3738 -0.8700 -0.3214
vn 0.7583 -0.0000 -0.6520
vn 0.7012 0.6877 -0.1879
vn 0.7239 -0.6621 -0.1940
vn 0.6327 0.5511 -0.5440
vn 0.6327 -0.5511 -0.5440
vn 0.9376 -0.2404 -0.2512
vn 0.9446 -0.2754 -0.1783
vn 0.8199 0.5511 -0.1548
vn 0.8199 -0.5511 -0.1548
vn 0.9376 -0.2404 0.2512
vn 0.3365 -0.9374 0.0902
vn 0.9826 -0.0000 -0.1855
vn 0.5812 0.8063 -0.1097
vn 0.6864 -0.2404 0.6864
vn 0.4652 -0.8700 0.1630
vn 0.9437 -0.0000 0.3307
vn 0.5582 0.8063 0.1956
vn 0.9072 -0.2754 0.3179
vn 0.7875 0.5511 0.2759
vn 0.4314 -0.7923 0.4314
vn 0.1879 0.6877 0.7012
vn -0.0000 -1.0000 -0.0000
vn 0.6267 -0.2754 0.7289
vn 0.5440 0.5511 0.6327
vn 0.5440 -0.5511 0.6327
vn 0.6267 0.2754 0.7289
vn -0.0000 1.0000 -0.0000
vn 0.3214 -0.8700 0.3738
vn 0.6520 -0.0000 0.7583
vn -0.2253 0.4923 -0.8408
vn 0.6267 0.2754 -0.7289
vn -0.6864 0.2404 -0.6864
vn 0.4314 0.7923 -0.4314
vn 0.1548 0.5511 -0.8199
vn 0.1940 0.6621 -0.7239
vn 0.2512 -0.2404 -0.9376
vn 0.9437 -0.0000 -0.3307
vn 0.1783 0.2754 -0.9446
vn 0.6520 -0.0000 -0.7583
vn 0.9072 -0.2754 -0.3179
vn -0.2759 0.5511 -0.7875
vn -0.6520 -0.0000 -0.7583
vn 0.1855 -0.0000 -0.9826
vn -0.3179 0.2754 -0.9072
vn 0.7875 -0.5511 -0.2759
vn 0.6267 -0.2754 -0.7289
vn -0.4485 0.8063 -0.3856
vn -0.5812 0.8063 -0.1097
vn -0.6327 0.5511 -0.5440
vn -0.8199 0.5511 -0.1548
vn -0.5582 0.8063 0.1956
vn -0.7289 0.2754 -0.6267
vn -0.3307 -0.0000 -0.9437
vn 0.5440 -0.5511 -0.6327
vn 0.1783 -0.2754 -0.9446
vn 0.4652 -0.8700 -0.1630
vn 0.4844 -0.8700 0.0914
vn -0.3856 0.8063 0.4485
vn -0.7875 0.5511 0.2759
vn -0.5440 0.5511 0.6327
vn -0.1097 0.8063 0.5812
vn -0.9072 0.2754 0.3179
vn -0.6267 0.2754 0.7289
vn 0.1956 0.8063 0.5582
vn -0.1548 0.5511 0.8199
vn 0.1579 0.7923 0.5894
vn -0.1879 0.6877 0.7012
vn 0.5299 0.6621 0.5299
vn 0.2553 0.1650 0.9527
vn -0.1122 0.9011 0.4188
vn -0.2553 0.1650 0.9527
vn -0.1956 0.8063 0.5582
vn -0.1579 0.7923 0.5894
vn -0.1783 0.2754 0.9446
vn -0.3066 0.9011 0.3066
vn 0.3856 0.8063 0.4485
vn 0.2759 0.5511 0.7875
vn 0.7239 0.6621 0.1940
vn 0.1122 0.9011 0.4188
vn 0.6327 0.5511 0.5440
vn 0.7239 0.6621 -0.1940
vn 0.5133 0.6877 0.5133
vn 0.3066 0.9011 0.3066
vn 0.8199 0.5511 0.1548
vn 0.4485 0.8063 0.3856
vn 0.6974 0.1650 0.6974
vn 0.7012 0.6877 0.1879
vn 0.4314 0.7923 0.4314
vn 0.4188 0.9011 0.1122
vn 0.4188 0.9011 -0.1122
vn 0.4485 0.8063 -0.3856
vn 0.5812 0.8063 0.1097
vn 0.5894 0.7923 0.1579
vn 0.9527 0.1650 0.2553
vn 0.3179 0.2754 0.9072
vn 0.9072 0.2754 0.3179
vn -0.1940 0.6621 -0.7239
vn -0.6267 0.2754 -0.7289
vn 0.5440 0.5511 -0.6327
vn 0.3066 0.9011 -0.3066
vn 0.5894 0.7923 -0.1579
vn 0.9527 0.1650 -0.2553
vn 0.5582 0.8063 -0.1956
vn 0.1956 0.8063 -0.5582
vn 0.1122 0.9011 -0.4188
vn -0.1579 0.7923 -0.5894
vn -0.5299 0.6621 -0.5299
vn -0.2553 0.1650 -0.9527
vn -0.9072 0.2754 -0.3179
vn -0.7875 0.5511 -0.2759
vn -0.4314 0.7923 -0.4314
vn -0.7239 0.6621 -0.1940
vn -0.9446 0.2754 0.1783
vn 0.1097 0.8063 -0.5812
vn -0.1956 0.8063 -0.5582
vn -0.8199 0.5511 0.1548
vn -0.7239 0.6621 0.1940
vn -0.5894 0.7923 -0.1579
vn -0.5894 0.7923 0.1579
vn -0.4188 0.9011 -0.1122
vn -0.7012 0.6877 -0.1879
vn -0.5299 0.6621 0.5299
vn -0.9527 0.1650 0.2553
vn -0.3179 0.2754 0.9072
vn -0.2759 0.5511 0.7875
vn 0.1783 0.2754 0.9446
vn -0.4485 0.8063 0.3856
vn -0.4188 0.9011 0.1122
vn -0.4314 0.7923 0.4314
vn -0.1940 0.6621 0.7239
vn 0.2759 0.5511 -0.7875
vn 0.7289 0.2754 -0.6267
vn 0.7875 0.5511 -0.2759
vn 0.9446 0.2754 0.1783
vn 0.3856 0.8063 -0.4485
vn -0.1097 0.8063 -0.5812
vn -0.1879 0.6877 -0.7012
vn 0.1579 0.7923 -0.5894
vn 0.2553 0.1650 -0.9527
vn -0.1122 0.9011 -0.4188
vn -0.3066 0.9011 -0.3066
vn -0.5133 0.6877 -0.5133
vn 0.7289 0.2754 0.6267
vn 0.9446 0.2754 -0.1783
vn 0.3307 -0.0000 0.9437
vn -0.1783 -0.2754 0.9446
vn -0.5440 -0.5511 0.6327
vn -0.6267 -0.2754 0.7289
vn -0.1855 -0.0000 0.9826
vn 0.1940 0.6621 0.7239
vn 0.2512 -0.2404 0.9376
vn -0.6520 -0.0000 0.7583
vn -0.9437 -0.0000 0.3307
vn -0.9446 -0.2754 -0.1783
vn -0.8199 -0.5511 -0.1548
vn -0.9072 -0.2754 0.3179
vn -0.7875 -0.5511 0.2759
vn -0.6155 -0.4923 0.6155
vn -0.1940 -0.6621 0.7239
vn -0.2512 0.2404 0.9376
vn -0.6155 0.4923 0.6155
vn -0.7289 0.2754 0.6267
vn -0.9446 0.2754 -0.1783
vn -0.9826 -0.0000 -0.1855
vn -0.6327 -0.5511 -0.5440
vn -0.7289 -0.2754 -0.6267
vn -0.5894 -0.7923 -0.1579
vn -0.9527 -0.1650 -0.2553
vn -0.7239 -0.6621 0.1940
vn -0.7583 -0.0000 -0.6520
vn -0.4314 -0.7923 0.4314
vn -0.6974 -0.1650 0.6974
vn -0.9376 0.2404 0.2512
vn -0.5299 -0.6621 0.5299
vn -0.8408 -0.4923 0.2253
vn -0.6864 0.2404 0.6864
vn -0.8408 -0.4923 -0.2253
vn -0.8408 0.4923 0.2253
vn -0.8408 0.4923 -0.2253
vn -0.9376 0.2404 -0.2512
vn -0.6155 -0.4923 -0.6155
vn -0.7239 -0.6621 -0.1940
vn -0.6155 0.4923 -0.6155
vn -0.3179 -0.2754 -0.9072
vn -0.2759 -0.5511 -0.7875
vn -0.9072 -0.2754 -0.3179
vn 0.1548 -0.5511 -0.8199
vn -0.4314 -0.7923 -0.4314
vn 0.2512 0.2404 -0.9376
vn -0.6974 -0.1650 -0.6974
vn -0.1783 -0.2754 -0.9446
vn -0.1940 -0.6621 -0.7239
vn -0.2512 0.2404 -0.9376
vn 0.2253 -0.4923 -0.8408
vn 0.2253 0.4923 -0.8408
vn -0.2553 -0.1650 -0.9527
vn 0.2553 -0.1650 -0.9527
vn 0.1579 -0.7923 -0.5894
vn -0.1579 -0.7923 -0.5894
vn 0.9072 0.2754 -0.3179
vn 0.9376 0.2404 -0.2512
vn 0.9826 -0.0000 0.1855
vn 0.6864 -0.2404 -0.6864
vn 0.5299 0.6621 -0.5299
vn 0.6155 -0.4923 -0.6155
vn 0.6155 0.4923 -0.6155
vn 0.5299 -0.6621 -0.5299
vn 0.8408 0.4923 -0.2253
vn 0.6864 0.2404 -0.6864
vn 0.8408 -0.4923 -0.2253
vn 0.8199 -0.5511 0.1548
vn 0.6974 -0.1650 -0.6974
vn 0.4314 -0.7923 -0.4314
vn 0.5894 -0.7923 -0.1579
vn 0.9527 -0.1650 -0.2553
vn 0.9446 -0.2754 0.1783
vn 0.7289 -0.2754 -0.6267
vn 0.7583 -0.0000 0.6520
vn 0.6155 0.4923 0.6155
vn 0.6155 -0.4923 0.6155
vn 0.8408 -0.4923 0.2253
vn 0.7289 -0.2754 0.6267
vn 0.2759 -0.5511 0.7875
vn -0.1548 -0.5511 0.8199
vn 0.8408 0.4923 0.2253
vn 0.7239 -0.6621 0.1940
vn 0.6974 -0.1650 0.6974
vn 0.3179 -0.2754 0.9072
vn 0.7875 -0.5511 0.2759
vn 0.6327 -0.5511 0.5440
vn 0.9376 0.2404 0.2512
vn 0.9527 -0.1650 0.2553
vn 0.5299 -0.6621 0.5299
vn 0.6864 0.2404 0.6864
vn 0.5894 -0.7923 0.1579
vn 0.1579 -0.7923 0.5894
vn 0.2553 -0.1650 0.9527
vn 0.1548 -0.5511 0.8199
vn -0.2553 -0.1650 0.9527
vn -0.2253 -0.4923 0.8408
vn -0.2253 0.4923 0.8408
vn 0.2253 0.4923 0.8408
vn 0.2253 -0.4923 0.8408
vn 0.1940 -0.6621 0.7239
vn 0.2512 0.2404 0.9376
vn -0.5894 -0.7923 0.1579
vn -0.9527 -0.1650 0.2553
vn 0.1630 -0.8700 0.4652
vn -0.4844 -0.8700 -0.0914
vn 0.3214 -0.8700 -0.3738
vn -0.3738 -0.8700 -0.3214
vn -0.0914 -0.8700 0.4844
vn -0.4469 -0.7750 0.4469
vn 0.4469 -0.7750 -0.4469
vn 0.2463 -0.9374 -0.2463
vn -0.3214 -0.8700 0.3738
vn -0.1630 -0.8700 -0.4652
vn 0.0914 -0.8700 -0.4844
vn 0.6105 -0.7750 0.1636
vn 0.2463 -0.9374 0.2463
vn -0.3365 -0.9374 0.0902
vn 0.0902 -0.9374 -0.3365
vn -0.6104 -0.7750 -0.1636
vn 0.1636 -0.7750 0.6104
vn -0.3365 -0.9374 -0.0902
vn -0.1630 -0.8700 0.4652
vn -0.6104 -0.7750 0.1636
vn -0.4469 -0.7750 -0.4469
vn 0.4844 -0.8700 -0.0914
vn -0.4652 -0.8700 0.1630
vn 0.4469 -0.7750 0.4469
vn 0.1636 -0.7750 -0.6104
vn 0.0902 -0.9374 0.3365
vn 0.0914 -0.8700 0.4844
vn -0.2463 -0.9374 -0.2463
vn -0.1636 -0.7750 0.6104
vn -0.0902 -0.9374 -0.3365
vn 0.3738 -0.8700 0.3214
vn -0.1636 -0.7750 -0.6104
vn 0.6104 -0.7750 -0.1636
vn 0.3365 -0.9374 -0.0902
vn -0.4792 0.8039 -0.3524
vn -0.7963 0.3405 -0.5000
vn -0.4110 0.7985 -0.4399
vn -0.6072 0.3361 -0.7199
vn 0.7217 0.6639 -0.1960
vn 0.7364 0.2897 -0.6114
vn 0.0725 0.6857 -0.7242
vn 0.4569 0.2929 -0.8399
vn -0.3093 0.8039 0.5080
vn -0.4286 0.3405 0.8369
vn -0.4024 0.7985 0.4477
vn -0.6643 0.3361 0.6677
vn 0.3093 0.8039 -0.5080
vn 0.4286 0.3405 -0.8369
vn 0.4024 0.7985 -0.4477
vn 0.6643 0.3361 -0.6677
vn 0.4791 0.8039 0.3524
vn 0.7963 0.3405 0.5000
vn 0.4110 0.7985 0.4399
vn 0.6072 0.3361 0.7199
vn -0.5779 0.8039 0.1406
vn -0.8948 0.3405 0.2886
vn -0.6011 0.7985 0.0321
vn -0.9418 0.3361 0.0024
vn 0.5779 0.8039 -0.1406
vn 0.8948 0.3405 -0.2886
vn 0.6011 0.7985 -0.0321
vn 0.9418 0.3361 -0.0024
vn -0.0897 0.8039 -0.5880
vn -0.2096 0.3405 -0.9166
vn 0.0205 0.7985 -0.6016
vn 0.0797 0.3361 -0.9384
vn 0.0897 0.8039 0.5880
vn 0.2096 0.3405 0.9166
vn -0.0205 0.7985 0.6016
vn -0.0797 0.3361 0.9384
vn -0.7241 0.6587 0.2046
vn -0.7364 0.2897 0.6114
vn -0.0804 0.6801 0.7287
vn -0.4569 0.2929 0.8399
vn 0.4905 -0.8066 0.3299
vn 0.7963 -0.3352 0.5035
vn 0.4020 -0.8004 0.4446
vn 0.6086 -0.3312 0.7210
vn -0.6894 -0.6852 0.2348
vn -0.7375 -0.2831 0.6132
vn -0.1117 -0.7042 0.7011
vn -0.4590 -0.2862 0.8410
vn 0.2859 -0.8066 -0.5174
vn 0.4321 -0.3352 -0.8372
vn 0.4079 -0.8004 -0.4393
vn 0.6653 -0.3312 -0.6692
vn -0.2859 -0.8066 0.5174
vn -0.4321 -0.3352 0.8372
vn -0.4079 -0.8004 0.4393
vn -0.6653 -0.3312 0.6692
vn -0.4905 -0.8066 -0.3299
vn -0.7963 -0.3352 -0.5035
vn -0.4020 -0.8004 -0.4446
vn -0.6086 -0.3312 -0.7210
vn 0.5649 -0.8072 -0.1710
vn 0.8984 -0.3336 -0.2857
vn 0.5984 -0.8010 -0.0192
vn 0.9441 -0.3297 -0.0029
vn -0.5649 -0.8072 0.1710
vn -0.8984 -0.3336 0.2857
vn -0.5984 -0.8010 0.0192
vn -0.9441 -0.3297 0.0029
vn 0.1212 -0.8072 0.5776
vn 0.2063 -0.3336 0.9199
vn -0.0331 -0.8010 0.5978
vn -0.0794 -0.3297 0.9407
vn -0.1212 -0.8072 -0.5776
vn -0.2063 -0.3336 -0.9199
vn 0.0331 -0.8010 -0.5978
vn 0.0794 -0.3297 -0.9407
vn 0.6926 -0.6792 -0.2429
vn 0.7373 -0.2833 -0.6133
vn 0.1190 -0.6979 -0.7062
vn 0.4592 -0.2865 -0.8409
vn 0.7770 0.0823 -0.6241
vn -0.5164 0.1122 0.8489
vn -0.5881 -0.7358 0.3356
vn 0.7200 -0.0908 -0.6880
vn -0.5513 -0.0108 0.8342
vn 0.1300 -0.8293 -0.5435
vn 0.6863 0.3203 0.6530
vn -0.7737 0.3366 -0.5368
vn -0.1967 -0.8130 -0.5480
vn 0.9109 0.0522 0.4093
vn -0.5765 0.0774 -0.8134
vn 0.5545 -0.8298 0.0632
vn -0.6895 0.0823 -0.7196
vn 0.8907 0.1122 0.4405
vn 0.3856 -0.7358 0.5566
vn -0.7481 -0.0908 -0.6573
vn 0.8791 -0.0108 0.4765
vn -0.5527 -0.8293 -0.0821
vn 0.6895 0.0823 0.7196
vn -0.8907 0.1122 -0.4405
vn -0.3856 -0.7358 -0.5566
vn 0.7481 -0.0908 0.6573
vn -0.8791 -0.0108 -0.4765
vn 0.5527 -0.8293 0.0821
vn -0.7770 0.0823 0.6241
vn 0.5164 0.1122 -0.8489
vn 0.5881 -0.7358 -0.3356
vn -0.7200 -0.0908 0.6880
vn 0.5513 -0.0108 -0.8342
vn -0.1300 -0.8293 0.5435
vn 0.0211 0.0820 -0.9964
vn 0.3179 0.1117 0.9415
vn -0.1189 -0.7326 0.6702
vn -0.0647 -0.0917 -0.9937
vn 0.2844 -0.0114 0.9586
vn -0.3325 -0.8281 -0.4513
vn -0.0211 0.0820 0.9964
vn -0.3179 0.1117 -0.9415
vn 0.1189 -0.7326 -0.6702
vn 0.0647 -0.0917 0.9937
vn -0.2844 -0.0114 -0.9586
vn 0.3325 -0.8281 0.4513
vn 0.9908 0.0820 0.1079
vn -0.9657 0.1117 0.2346
vn -0.6573 -0.7326 -0.1768
vn 0.9955 -0.0917 0.0222
vn -0.9798 -0.0114 0.1997
vn 0.4786 -0.8281 -0.2919
vn -0.9908 0.0820 -0.1079
vn 0.9657 0.1117 -0.2346
vn 0.6573 -0.7326 0.1768
vn -0.9955 -0.0917 -0.0222
vn 0.9798 -0.0114 -0.1997
vn -0.4786 -0.8281 0.2919
vn -0.6900 0.3176 -0.6504
vn 0.7719 0.3337 0.5411
vn 0.1967 -0.8130 0.5480
vn -0.9103 0.0521 -0.4108
vn 0.5779 0.0772 0.8125
vn -0.5545 -0.8298 -0.0632
vt 0.474424 0.370535
vt 0.474424 0.370535
vt 0.500000 0.500000
vt 0.500000 0.500000
s 1
usemtl 1texture.006
f 2/1/1 121/1/1 8/1/1
f 96/1/2 173/1/2 12/1/2
f 95/1/3 2/1/3 165/1/3
f 94/1/4 93/1/4 100/1/4
f 3/1/5 95/1/5 132/1/5
f 1/1/6 94/1/6 102/1/6
f 4/1/7 164/1/7 11/1/7
f 9/1/8 8/1/8 133/1/8
f 6/1/9 101/1/9 14/1/9
f 10/1/10 9/1/10 138/1/10
f 7/1/11 122/1/11 15/1/11
f 11/1/12 10/1/12 137/1/12
f 8/1/13 118/1/13 16/1/13
f 12/1/14 172/1/14 20/1/14
f 15/1/15 14/1/15 120/1/15
f 19/1/16 18/1/16 168/1/16
f 16/1/17 134/1/17 24/1/17
f 20/1/18 19/1/18 174/1/18
f 17/1/19 16/1/19 140/1/19
f 14/1/20 123/1/20 22/1/20
f 18/1/21 17/1/21 136/1/21
f 28/1/22 27/1/22 179/1/22
f 25/1/23 24/1/23 139/1/23
f 22/1/24 21/1/24 119/1/24
f 26/1/25 25/1/25 142/1/25
f 23/1/26 117/1/26 31/1/26
f 27/1/27 26/1/27 135/1/27
f 24/1/28 115/1/28 32/1/28
f 34/1/29 143/1/29 42/1/29
f 31/1/30 116/1/30 39/1/30
f 35/1/31 34/1/31 145/1/31
f 32/1/32 113/1/32 40/1/32
f 36/1/33 35/1/33 170/1/33
f 33/1/34 32/1/34 141/1/34
f 30/1/35 29/1/35 129/1/35
f 40/1/36 110/1/36 48/1/36
f 44/1/37 43/1/37 178/1/37
f 41/1/38 98/1/38 49/1/38
f 38/1/39 37/1/39 127/2/39
f 42/1/40 41/1/40 147/1/40
f 39/1/41 38/1/41 114/1/41
f 43/1/42 42/1/42 149/1/42
f 46/1/43 126/1/43 54/1/43
f 50/1/44 144/1/44 58/1/44
f 47/1/45 46/1/45 128/1/45
f 51/1/46 50/1/46 148/1/46
f 48/1/47 47/1/47 97/1/47
f 52/1/48 51/1/48 171/1/48
f 49/1/49 48/1/49 146/1/49
f 59/1/50 58/1/50 154/1/50
f 56/1/51 55/1/51 150/1/51
f 60/1/52 59/1/52 169/1/52
f 57/1/53 56/1/53 151/1/53
f 54/1/54 112/1/54 62/1/54
f 58/1/55 57/1/55 152/1/55
f 55/1/56 125/1/56 63/1/56
f 68/1/57 67/1/57 180/1/57
f 65/1/58 64/1/58 153/1/58
f 62/1/59 107/1/59 70/1/59
f 66/1/60 156/1/60 74/1/60
f 63/1/61 62/1/61 111/1/61
f 67/1/62 66/1/62 155/1/62
f 64/1/63 124/1/63 72/1/63
f 74/1/64 73/1/64 160/1/64
f 71/1/65 70/1/65 109/1/65
f 75/1/66 74/1/66 162/1/66
f 72/1/67 130/1/67 80/1/67
f 76/1/68 175/1/68 84/1/68
f 73/1/69 72/1/69 158/1/69
f 70/1/70 69/1/70 106/1/70
f 80/1/71 108/1/71 88/1/71
f 84/1/72 83/1/72 177/2/72
f 81/1/73 80/1/73 157/1/73
f 78/1/74 77/1/74 104/1/74
f 82/1/75 81/1/75 161/1/75
f 79/1/76 78/1/76 105/1/76
f 83/1/77 159/1/77 91/1/77
f 86/1/78 103/1/78 94/1/78
f 20/1/79 28/1/79 36/1/79 44/1/79 52/1/79 60/1/79 68/1/79 76/1/79 84/1/79 92/1/79 96/1/79 12/1/79
f 90/1/80 89/1/80 167/1/80
f 87/1/81 86/1/81 99/1/81
f 91/1/82 90/1/82 163/1/82
f 88/1/83 87/1/83 131/1/83
f 13/1/84 5/1/84 93/1/84 85/1/84 77/1/84 69/1/84 61/1/84 53/1/84 45/1/84 37/1/84 29/1/84 21/1/84
f 92/1/85 91/1/85 176/1/85
f 89/1/86 88/1/86 166/1/86
f 48/1/87 98/1/87 40/1/87
f 55/1/88 56/1/88 97/1/88
f 41/1/89 143/1/89 33/1/89
f 62/1/90 125/1/90 54/1/90
f 47/1/91 114/1/91 46/1/91
f 97/1/92 47/1/92 55/1/92
f 97/1/93 56/1/93 48/1/93
f 65/1/94 151/1/94 64/1/94
f 48/1/95 110/1/95 47/1/95
f 57/1/96 146/1/96 56/1/96
f 66/1/97 152/1/97 65/1/97
f 39/1/98 116/1/98 38/1/98
f 40/1/99 98/1/99 41/1/99
f 49/1/100 98/1/100 48/1/100
f 40/1/101 113/1/101 39/1/101
f 67/1/102 154/1/102 66/1/102
f 58/1/103 144/1/103 57/1/103
f 30/1/104 119/1/104 29/1/104
f 22/1/105 123/1/105 21/1/105
f 31/1/106 117/1/106 30/1/106
f 23/1/107 120/1/107 22/1/107
f 14/1/108 101/1/108 13/1/108
f 32/1/109 115/1/109 31/1/109
f 41/1/110 141/1/110 40/1/110
f 59/1/111 148/1/111 58/1/111
f 50/1/112 147/1/112 49/1/112
f 68/1/113 169/1/113 67/1/113
f 76/1/114 180/1/114 75/1/114
f 6/1/115 100/1/115 5/1/115
f 15/1/116 122/1/116 14/1/116
f 7/1/117 102/1/117 6/1/117
f 94/1/118 103/1/118 93/1/118
f 16/1/119 118/1/119 15/1/119
f 8/1/120 121/1/120 7/1/120
f 86/1/121 104/1/121 85/1/121
f 1/1/122 99/1/122 94/1/122
f 94/1/123 99/1/123 86/1/123
f 100/1/124 6/1/124 94/1/124
f 87/1/125 108/1/125 79/1/125
f 99/1/126 1/1/126 87/1/126
f 5/1/127 100/1/127 93/1/127
f 102/1/128 7/1/128 1/1/128
f 101/1/129 6/1/129 5/1/129
f 6/1/130 102/1/130 94/1/130
f 1/1/131 2/1/131 131/1/131
f 13/1/132 101/1/132 5/1/132
f 103/1/133 86/1/133 85/1/133
f 86/1/134 87/1/134 105/1/134
f 79/1/135 130/1/135 71/1/135
f 93/1/136 103/1/136 85/1/136
f 78/1/137 79/1/137 109/1/137
f 71/1/138 124/1/138 63/1/138
f 104/1/139 86/1/139 78/1/139
f 85/1/140 104/1/140 77/1/140
f 70/1/141 71/1/141 111/1/141
f 77/1/142 78/1/142 106/1/142
f 105/1/143 87/1/143 79/1/143
f 106/1/144 78/1/144 70/1/144
f 105/1/145 78/1/145 86/1/145
f 106/1/146 69/1/146 77/1/146
f 69/1/147 107/1/147 61/1/147
f 61/1/148 107/1/148 62/1/148
f 70/1/149 107/1/149 69/1/149
f 109/1/150 70/1/150 78/1/150
f 109/1/151 79/1/151 71/1/151
f 88/1/152 108/1/152 87/1/152
f 79/1/153 108/1/153 80/1/153
f 47/1/154 110/1/154 39/1/154
f 110/1/155 40/1/155 39/1/155
f 54/1/156 55/1/156 128/1/156
f 61/1/157 112/1/157 53/1/157
f 111/1/158 62/1/158 70/1/158
f 111/1/159 71/1/159 63/1/159
f 62/1/160 112/1/160 61/1/160
f 53/1/161 112/1/161 54/1/161
f 53/1/162 126/1/162 45/1/162
f 46/1/163 114/1/163 38/1/163
f 39/1/164 113/1/164 31/1/164
f 114/1/165 47/1/165 39/1/165
f 113/1/166 32/1/166 31/1/166
f 116/1/167 31/1/167 30/1/167
f 38/1/168 116/1/168 30/1/168
f 31/1/169 115/1/169 23/1/169
f 115/1/170 24/1/170 23/1/170
f 45/1/171 46/1/171 127/2/171
f 37/1/172 38/1/172 129/1/172
f 117/1/173 23/1/173 22/1/173
f 23/1/174 134/1/174 15/1/174
f 30/1/175 117/1/175 22/1/175
f 22/1/176 120/1/176 14/1/176
f 29/1/177 119/1/177 21/1/177
f 119/1/178 30/1/178 22/1/178
f 15/1/179 118/1/179 7/1/179
f 120/1/180 23/1/180 15/1/180
f 118/1/181 8/1/181 7/1/181
f 122/1/182 7/1/182 6/1/182
f 121/1/183 2/1/183 1/1/183
f 123/1/184 14/1/184 13/1/184
f 21/1/185 123/1/185 13/1/185
f 14/1/186 122/1/186 6/1/186
f 7/1/187 121/1/187 1/1/187
f 54/1/188 125/1/188 55/1/188
f 63/1/189 124/1/189 64/1/189
f 63/1/190 125/1/190 62/1/190
f 72/1/191 124/1/191 71/1/191
f 54/1/192 126/1/192 53/1/192
f 45/1/193 126/1/193 46/1/193
f 127/2/194 46/1/194 38/1/194
f 128/1/195 46/1/195 54/1/195
f 128/1/196 55/1/196 47/1/196
f 127/2/197 37/1/197 45/1/197
f 129/1/198 29/1/198 37/1/198
f 129/1/199 38/1/199 30/1/199
f 80/1/200 130/1/200 79/1/200
f 71/1/201 130/1/201 72/1/201
f 89/1/202 157/1/202 88/1/202
f 3/1/203 167/1/203 95/1/203
f 11/1/204 164/1/204 10/1/204
f 10/1/205 132/1/205 9/1/205
f 95/1/206 166/1/206 2/1/206
f 131/1/207 87/1/207 1/1/207
f 131/1/208 2/1/208 88/1/208
f 9/1/209 165/1/209 8/1/209
f 17/1/210 133/1/210 16/1/210
f 26/1/211 136/1/211 25/1/211
f 27/1/212 168/1/212 26/1/212
f 18/1/213 138/1/213 17/1/213
f 19/1/214 137/1/214 18/1/214
f 133/1/215 17/1/215 9/1/215
f 132/1/216 10/1/216 3/1/216
f 9/1/217 132/1/217 95/1/217
f 16/1/218 133/1/218 8/1/218
f 15/1/219 134/1/219 16/1/219
f 24/1/220 134/1/220 23/1/220
f 25/1/221 140/1/221 24/1/221
f 34/1/222 35/1/222 135/1/222
f 34/1/223 142/1/223 33/1/223
f 135/1/224 35/1/224 27/1/224
f 135/1/225 26/1/225 34/1/225
f 136/1/226 26/1/226 18/1/226
f 32/1/227 33/1/227 139/1/227
f 137/1/228 19/1/228 11/1/228
f 18/1/229 137/1/229 10/1/229
f 25/1/230 136/1/230 17/1/230
f 138/1/231 18/1/231 10/1/231
f 140/1/232 25/1/232 17/1/232
f 17/1/233 138/1/233 9/1/233
f 139/1/234 33/1/234 25/1/234
f 24/1/235 140/1/235 16/1/235
f 139/1/236 24/1/236 32/1/236
f 33/1/237 142/1/237 25/1/237
f 141/1/238 41/1/238 33/1/238
f 142/1/239 34/1/239 26/1/239
f 40/1/240 141/1/240 32/1/240
f 42/1/241 143/1/241 41/1/241
f 42/1/242 43/1/242 145/1/242
f 33/1/243 143/1/243 34/1/243
f 50/1/244 51/1/244 149/1/244
f 145/1/245 43/1/245 35/1/245
f 57/1/246 144/1/246 49/1/246
f 145/1/247 34/1/247 42/1/247
f 144/1/248 50/1/248 49/1/248
f 147/1/249 50/1/249 42/1/249
f 49/1/250 147/1/250 41/1/250
f 146/1/251 57/1/251 49/1/251
f 56/1/252 146/1/252 48/1/252
f 149/1/253 42/1/253 50/1/253
f 58/1/254 148/1/254 50/1/254
f 148/1/255 59/1/255 51/1/255
f 149/1/256 51/1/256 43/1/256
f 64/1/257 150/1/257 63/1/257
f 73/1/258 156/1/258 65/1/258
f 73/1/259 153/1/259 72/1/259
f 150/1/260 64/1/260 56/1/260
f 63/1/261 150/1/261 55/1/261
f 151/1/262 65/1/262 57/1/262
f 64/1/263 151/1/263 56/1/263
f 152/1/264 66/1/264 58/1/264
f 72/1/265 153/1/265 64/1/265
f 65/1/266 152/1/266 57/1/266
f 153/1/267 73/1/267 65/1/267
f 75/1/268 155/1/268 74/1/268
f 66/1/269 154/1/269 58/1/269
f 154/1/270 67/1/270 59/1/270
f 155/1/271 75/1/271 67/1/271
f 74/1/272 155/1/272 66/1/272
f 74/1/273 156/1/273 73/1/273
f 65/1/274 156/1/274 66/1/274
f 81/1/275 158/1/275 80/1/275
f 88/1/276 157/1/276 80/1/276
f 157/1/277 89/1/277 81/1/277
f 158/1/278 81/1/278 73/1/278
f 82/1/279 160/1/279 81/1/279
f 91/1/280 159/1/280 90/1/280
f 3/1/281 4/1/281 163/1/281
f 80/1/282 158/1/282 72/1/282
f 160/1/283 82/1/283 74/1/283
f 90/1/284 159/1/284 82/1/284
f 90/1/285 161/1/285 89/1/285
f 159/1/286 83/1/286 82/1/286
f 83/1/287 162/1/287 82/1/287
f 81/1/288 160/1/288 73/1/288
f 82/1/289 162/1/289 74/1/289
f 161/1/290 90/1/290 82/1/290
f 89/1/291 161/1/291 81/1/291
f 162/1/292 83/1/292 75/1/292
f 163/1/293 4/1/293 91/1/293
f 163/1/294 90/1/294 3/1/294
f 164/1/295 4/1/295 3/1/295
f 10/1/296 164/1/296 3/1/296
f 165/1/297 9/1/297 95/1/297
f 8/1/298 165/1/298 2/1/298
f 2/1/299 166/1/299 88/1/299
f 166/1/300 95/1/300 89/1/300
f 167/1/301 3/1/301 90/1/301
f 95/1/302 167/1/302 89/1/302
f 168/1/303 27/1/303 19/1/303
f 26/1/304 168/1/304 18/1/304
f 92/1/305 177/2/305 91/1/305
f 28/1/306 174/1/306 27/1/306
f 60/1/307 171/1/307 59/1/307
f 35/1/308 36/1/308 179/1/308
f 4/1/309 96/1/309 176/1/309
f 19/1/310 172/1/310 11/1/310
f 67/1/311 169/1/311 59/1/311
f 169/1/312 68/1/312 60/1/312
f 12/1/313 173/1/313 11/1/313
f 44/1/314 170/1/314 43/1/314
f 51/1/315 52/1/315 178/1/315
f 83/1/316 175/1/316 75/1/316
f 177/2/317 92/1/317 84/1/317
f 174/1/318 28/1/318 20/1/318
f 171/1/319 60/1/319 52/1/319
f 179/1/320 27/1/320 35/1/320
f 176/1/321 91/1/321 4/1/321
f 179/1/322 36/1/322 28/1/322
f 11/1/323 172/1/323 12/1/323
f 27/1/324 174/1/324 19/1/324
f 43/1/325 170/1/325 35/1/325
f 75/1/326 175/1/326 76/1/326
f 20/1/327 172/1/327 19/1/327
f 91/1/328 177/2/328 83/1/328
f 59/1/329 171/1/329 51/1/329
f 176/1/330 96/1/330 92/1/330
f 173/1/331 96/1/331 4/1/331
f 170/1/332 44/1/332 36/1/332
f 11/1/333 173/1/333 4/1/333
f 178/1/334 52/1/334 44/1/334
f 84/1/335 175/1/335 83/1/335
f 178/1/336 43/1/336 51/1/336
f 75/1/337 180/1/337 67/1/337
f 180/1/338 76/1/338 68/1/338
f 181/3/339 187/4/339 183/3/339
f 183/3/340 187/4/340 186/4/340 185/3/340
f 187/4/341 181/3/341 182/3/341
f 186/4/342 187/4/342 182/3/342 184/3/342
f 188/3/343 194/4/343 190/3/343
f 190/3/344 194/4/344 193/4/344 192/3/344
f 194/4/345 188/3/345 189/3/345
f 193/4/346 194/4/346 189/3/346 191/3/346
f 195/3/347 201/4/347 197/3/347
f 197/3/348 201/4/348 200/4/348 199/3/348
f 201/4/349 195/3/349 196/3/349
f 200/4/350 201/4/350 196/3/350 198/3/350
f 202/3/351 208/4/351 204/3/351
f 204/3/352 208/4/352 207/4/352 206/3/352
f 208/4/353 202/3/353 203/3/353
f 207/4/354 208/4/354 203/3/354 205/3/354
f 209/3/355 215/4/355 211/3/355
f 211/3/356 215/4/356 214/4/356 213/3/356
f 215/4/357 209/3/357 210/3/357
f 214/4/358 215/4/358 210/3/358 212/3/358
f 216/3/359 222/4/359 218/3/359
f 218/3/360 222/4/360 221/4/360 220/3/360
f 222/4/361 216/3/361 217/3/361
f 221/4/362 222/4/362 217/3/362 219/3/362
f 223/3/363 229/4/363 225/3/363
f 225/3/364 229/4/364 228/4/364 227/3/364
f 229/4/365 223/3/365 224/3/365
f 228/4/366 229/4/366 224/3/366 226/3/366
f 230/3/367 236/4/367 232/3/367
f 232/3/368 236/4/368 235/4/368 234/3/368
f 236/4/369 230/3/369 231/3/369
f 235/4/370 236/4/370 231/3/370 233/3/370
f 237/3/371 243/4/371 239/3/371
f 239/3/372 243/4/372 242/4/372 241/3/372
f 243/4/373 237/3/373 238/3/373
f 242/4/374 243/4/374 238/3/374 240/3/374
f 244/3/375 250/4/375 246/3/375
f 246/3/376 250/4/376 249/4/376 248/3/376
f 250/4/377 244/3/377 245/3/377
f 249/4/378 250/4/378 245/3/378 247/3/378
f 251/3/379 253/3/379 257/4/379
f 253/3/380 255/3/380 256/4/380 257/4/380
f 257/4/381 252/3/381 251/3/381
f 256/4/382 254/3/382 252/3/382 257/4/382
f 258/3/383 260/3/383 264/4/383
f 260/3/384 262/3/384 263/4/384 264/4/384
f 264/4/385 259/3/385 258/3/385
f 263/4/386 261/3/386 259/3/386 264/4/386
f 265/3/387 267/3/387 271/4/387
f 267/3/388 269/3/388 270/4/388 271/4/388
f 271/4/389 266/3/389 265/3/389
f 270/4/390 268/3/390 266/3/390 271/4/390
f 272/3/391 274/3/391 278/4/391
f 274/3/392 276/3/392 277/4/392 278/4/392
f 278/4/393 273/3/393 272/3/393
f 277/4/394 275/3/394 273/3/394 278/4/394
f 279/3/395 281/3/395 285/4/395
f 281/3/396 283/3/396 284/4/396 285/4/396
f 285/4/397 280/3/397 279/3/397
f 284/4/398 282/3/398 280/3/398 285/4/398
f 286/3/399 288/3/399 292/4/399
f 288/3/400 290/3/400 291/4/400 292/4/400
f 292/4/401 287/3/401 286/3/401
f 291/4/402 289/3/402 287/3/402 292/4/402
f 293/3/403 295/3/403 299/4/403
f 295/3/404 297/3/404 298/4/404 299/4/404
f 299/4/405 294/3/405 293/3/405
f 298/4/406 296/3/406 294/3/406 299/4/406
f 300/3/407 302/3/407 306/4/407
f 302/3/408 304/3/408 305/4/408 306/4/408
f 306/4/409 301/3/409 300/3/409
f 305/4/410 303/3/410 301/3/410 306/4/410
f 307/3/411 309/3/411 313/4/411
f 309/3/412 311/3/412 312/4/412 313/4/412
f 313/4/413 308/3/413 307/3/413
f 312/4/414 310/3/414 308/3/414 313/4/414
f 314/3/415 316/3/415 320/4/415
f 316/3/416 318/3/416 319/4/416 320/4/416
f 320/4/417 315/3/417 314/3/417
f 319/4/418 317/3/418 315/3/418 320/4/418
f 182/3/419 181/3/419 251/3/419 252/3/419
f 181/3/420 183/3/420 253/3/420 251/3/420
f 185/3/421 186/4/421 256/4/421 255/3/421
f 184/3/422 182/3/422 252/3/422 254/3/422
f 183/3/423 185/3/423 255/3/423 253/3/423
f 186/4/424 184/3/424 254/3/424 256/4/424
f 189/3/425 188/3/425 258/3/425 259/3/425
f 188/3/426 190/3/426 260/3/426 258/3/426
f 192/3/427 193/4/427 263/4/427 262/3/427
f 191/3/428 189/3/428 259/3/428 261/3/428
f 190/3/429 192/3/429 262/3/429 260/3/429
f 193/4/430 191/3/430 261/3/430 263/4/430
f 196/3/431 195/3/431 265/3/431 266/3/431
f 195/3/432 197/3/432 267/3/432 265/3/432
f 199/3/433 200/4/433 270/4/433 269/3/433
f 198/3/434 196/3/434 266/3/434 268/3/434
f 197/3/435 199/3/435 269/3/435 267/3/435
f 200/4/436 198/3/436 268/3/436 270/4/436
f 203/3/437 202/3/437 272/3/437 273/3/437
f 202/3/438 204/3/438 274/3/438 272/3/438
f 206/3/439 207/4/439 277/4/439 276/3/439
f 205/3/440 203/3/440 273/3/440 275/3/440
f 204/3/441 206/3/441 276/3/441 274/3/441
f 207/4/442 205/3/442 275/3/442 277/4/442
f 210/3/443 209/3/443 279/3/443 280/3/443
f 209/3/444 211/3/444 281/3/444 279/3/444
f 213/3/445 214/4/445 284/4/445 283/3/445
f 212/3/446 210/3/446 280/3/446 282/3/446
f 211/3/447 213/3/447 283/3/447 281/3/447
f 214/4/448 212/3/448 282/3/448 284/4/448
f 217/3/449 216/3/449 286/3/449 287/3/449
f 216/3/450 218/3/450 288/3/450 286/3/450
f 220/3/451 221/4/451 291/4/451 290/3/451
f 219/3/452 217/3/452 287/3/452 289/3/452
f 218/3/453 220/3/453 290/3/453 288/3/453
f 221/4/454 219/3/454 289/3/454 291/4/454
f 224/3/455 223/3/455 293/3/455 294/3/455
f 223/3/456 225/3/456 295/3/456 293/3/456
f 227/3/457 228/4/457 298/4/457 297/3/457
f 226/3/458 224/3/458 294/3/458 296/3/458
f 225/3/459 227/3/459 297/3/459 295/3/459
f 228/4/460 226/3/460 296/3/460 298/4/460
f 231/3/461 230/3/461 300/3/461 301/3/461
f 230/3/462 232/3/462 302/3/462 300/3/462
f 234/3/463 235/4/463 305/4/463 304/3/463
f 233/3/464 231/3/464 301/3/464 303/3/464
f 232/3/465 234/3/465 304/3/465 302/3/465
f 235/4/466 233/3/466 303/3/466 305/4/466
f 238/3/467 237/3/467 307/3/467 308/3/467
f 237/3/468 239/3/468 309/3/468 307/3/468
f 241/3/469 242/4/469 312/4/469 311/3/469
f 240/3/470 238/3/470 308/3/470 310/3/470
f 239/3/471 241/3/471 311/3/471 309/3/471
f 242/4/472 240/3/472 310/3/472 312/4/472
f 245/3/473 244/3/473 314/3/473 315/3/473
f 244/3/474 246/3/474 316/3/474 314/3/474
f 248/3/475 249/4/475 319/4/475 318/3/475
f 247/3/476 245/3/476 315/3/476 317/3/476
f 246/3/477 248/3/477 318/3/477 316/3/477
f 249/4/478 247/3/478 317/3/478 319/4/478
