# Blender 3.6.1
# www.blender.org
mtllib snail5.mtl
o snail
v 0.467093 -1.132111 0.596483
v -1.878931 -0.198452 -0.266424
v -1.154589 1.053011 0.059612
v -0.035279 1.626742 0.274285
v 1.091763 1.822655 0.604826
v 2.248315 0.954555 1.178713
v 2.406656 -0.289541 1.248821
v 2.162202 -1.253640 0.791167
v 0.841440 -1.336847 0.663131
v 1.659260 -1.413830 0.771263
v 3.548191 -1.650063 1.157801
v 1.643143 -1.634314 0.938138
v -2.611724 -1.620328 0.070034
v 0.584086 -1.636076 0.757180
v -3.178340 -1.037618 -0.404293
v -2.664775 0.768925 -0.496897
v -3.294005 0.051469 -0.681439
v -3.372862 0.888223 -0.600771
v -3.656702 0.186714 -0.787811
v 0.738164 -1.132111 -0.327786
v -1.692350 -0.198452 -0.902609
v 0.553362 0.332596 -1.146201
v -0.889634 1.180802 -0.843803
v 0.872989 1.156013 -0.935651
v 0.178149 1.787925 -0.453437
v 1.792514 -0.029227 -0.982166
v 1.427198 0.501821 -1.297007
v 1.586692 1.320697 -0.638361
v 1.284597 1.927730 -0.052680
v 2.394387 0.808348 -0.401479
v 2.692752 1.022799 0.362426
v 2.406383 0.076422 -0.442378
v 2.804192 -0.289541 0.540472
v 2.122451 -0.106559 -0.644603
v 2.213265 -1.253640 0.617061
v 1.581074 0.841035 -1.167534
v 1.799936 0.989969 -1.085655
v 2.318704 0.729604 -0.870913
v 2.304390 0.470145 -0.934028
v 2.053781 0.499829 -1.117610
v 2.021646 0.707317 -1.121473
v 0.996991 -1.390677 0.132750
v 1.779239 -1.413830 0.362170
v 3.577729 -1.650063 1.057084
v 1.855806 -1.634314 0.213023
v -2.193945 -1.620328 -1.354464
v 0.866770 -1.636076 -0.206687
v -2.926993 -1.037618 -1.261306
v -2.544795 0.768925 -0.905991
v -3.174025 0.051469 -1.090532
v -3.196822 0.888223 -1.201013
v -3.536723 0.186714 -1.196905
v 3.095530 -1.450583 1.151765
v 1.627131 -1.567228 0.958681
v 0.643358 -1.545030 0.793462
v -1.740412 -1.471778 0.453475
v -2.881109 -0.782285 -0.027718
v -3.177698 0.210568 -0.369055
v -4.394008 0.191491 -0.700962
v 3.193511 -1.424027 0.817680
v 1.853425 -1.567228 0.187086
v 0.936249 -1.545030 -0.205209
v -1.253552 -1.471778 -1.206566
v -2.481051 -0.782285 -1.391790
v -2.907421 0.210568 -1.290615
v 1.627928 -1.474648 0.908969
v -0.475205 -1.266779 0.768529
v 1.827246 -1.474648 0.229354
v -0.029712 -1.266779 -0.750462
v 2.531394 -1.307920 0.937017
v 0.767952 -1.419386 0.697601
v -2.300740 -0.429925 -0.088332
v -2.893089 0.629058 -0.361121
v -3.642967 0.721912 -0.658689
v 2.602749 -1.337422 0.693717
v 0.989332 -1.419386 -0.057238
v -2.017756 -0.429925 -1.053220
v -2.663610 0.629058 -1.143574
v -3.455423 0.721912 -1.298156
v -3.007585 -1.328973 -0.161200
v -0.226402 -0.623272 -1.267489
v -0.080089 0.634516 -1.295218
v 0.580699 1.403038 -0.882521
v 1.115658 0.424087 -1.470494
v 1.484231 -0.597534 -1.222720
v 1.571335 1.485380 -0.586712
v 2.465521 0.954733 -0.287132
v 2.622967 -0.106560 -0.353813
v 2.349358 -0.747254 -0.632629
v 1.771961 1.155333 -1.130171
v 1.345963 0.998524 -1.290560
v 2.412990 0.273283 -1.008256
v 2.418580 0.805400 -0.847714
v -2.641387 -1.328973 -1.409823
v -1.867302 -1.127032 -1.299178
v -2.331213 -1.127032 0.282614
v -1.412594 -0.848352 0.424050
v -0.953367 -0.848352 -1.141773
v 2.305974 0.703586 -1.243144
v 2.328429 0.585664 -1.309581
v 1.697490 1.545955 0.876134
v 1.920816 1.641012 0.114661
v 1.994011 1.144663 -0.498937
v 2.055703 0.925714 -0.944183
v 2.140390 0.225939 -1.251895
v 1.902520 0.805786 -1.320667
v 1.877882 0.500803 -1.409482
v 2.090108 1.077144 -0.944048
v 2.028070 1.312568 -0.433054
v 0.625066 -1.006593 -0.574184
v -1.332575 -0.245023 -1.158350
v -0.122477 -0.585958 -1.400473
v -1.104223 -0.562337 0.829478
v 0.328221 -1.078485 0.809208
v -1.874377 -0.202605 -0.044307
v -1.111651 -0.517177 0.934158
v -1.018268 0.803511 0.778833
v -0.097533 0.864951 1.417041
v 1.003305 0.676249 1.728632
v 1.377138 -0.502171 1.585441
v 0.411783 -0.577260 1.537113
v 2.093056 0.853694 -1.255420
v -2.749604 0.836632 -0.581149
v -2.661692 0.836632 -0.880902
v -2.870004 0.930892 -0.699584
v -2.826988 0.930892 -0.846256
v -2.988784 0.884394 -0.543835
v -2.842831 0.884394 -1.041488
v -3.653296 1.689641 0.092318
v -3.443895 2.058021 -1.726165
v -2.958300 1.583148 -1.265057
v -2.917521 1.538668 -1.329353
v -2.984113 1.418111 -1.262027
v -3.168726 1.409419 -0.195406
v -3.152636 1.416889 -0.307390
v -3.139122 1.321766 -0.298074
v -4.100034 0.238433 -1.802281
v -3.789983 0.416404 -0.838411
v -3.680080 0.416405 -1.227438
v -3.620507 0.378604 -1.324158
v -3.777136 0.383598 -0.738327
v -3.801331 0.497520 -0.702352
v -3.612285 0.497520 -1.346942
vn 0.0016 -1.0000 0.0005
vn -0.1100 -0.2202 0.9692
vn -0.1439 -0.2841 0.9479
vn -0.3698 -0.1823 0.9110
vn -0.9355 -0.0095 0.3531
vn -0.4284 -0.7307 0.5316
vn 0.6404 -0.2724 -0.7181
vn 0.5933 0.0188 -0.8048
vn 0.1140 0.7904 -0.6019
vn 0.6532 0.6989 -0.2912
vn 0.9807 0.0579 -0.1869
vn 0.9254 -0.2879 -0.2464
vn 0.5754 0.1889 -0.7957
vn 0.4411 -0.1630 -0.8826
vn 0.5106 0.0946 -0.8546
vn -0.1272 0.2877 -0.9492
vn 0.4704 -0.1543 -0.8689
vn 0.1590 -0.8760 -0.4554
vn 0.8712 0.0711 -0.4858
vn 0.5492 0.5014 -0.6686
vn 0.0116 0.7895 -0.6137
vn 0.5094 0.5351 -0.6739
vn 0.4154 -0.3152 -0.8533
vn 0.2155 -0.7815 -0.5855
vn 0.1361 0.0209 -0.9905
vn -0.5966 -0.0095 -0.8025
vn -0.0734 -0.7307 -0.6788
vn 0.1361 0.9185 -0.3714
vn -0.2123 0.9654 0.1516
vn -0.7503 -0.6234 -0.2201
vn -0.0080 -1.0000 -0.0023
vn 0.3941 0.8998 0.1871
vn 0.7942 -0.4130 0.4457
vn 0.5754 0.7273 0.3741
vn -0.9455 -0.1710 -0.2773
vn -0.0046 -1.0000 -0.0014
vn 0.7324 0.6461 0.2148
vn -0.4959 0.8561 -0.1454
vn -0.8335 0.4955 -0.2444
vn -0.3233 -0.9415 -0.0948
vn 0.8648 0.1389 0.4825
vn -0.3999 0.7722 -0.4937
vn 0.1596 0.9845 -0.0726
vn 0.1419 -0.2705 0.9522
vn 0.4668 0.2114 -0.8587
vn 0.1625 0.0243 -0.9864
vn 0.3762 -0.2727 -0.8855
vn 0.5255 0.5462 -0.6523
vn 0.2438 0.6954 -0.6760
vn 0.2623 -0.9065 -0.3308
vn -0.3395 0.2135 0.9161
vn 0.1130 0.5295 0.8408
vn -0.1140 0.4708 0.8749
vn -0.1554 0.7303 0.6652
vn 0.0316 0.3611 0.9320
vn -0.1331 0.6812 0.7198
vn 0.2606 0.4189 0.8698
vn -0.3351 0.2256 0.9148
vn 0.8009 0.5864 -0.1209
vn 0.3568 0.4696 -0.8076
vn 0.0545 -0.6152 -0.7865
vn 0.5972 0.5241 -0.6072
vn 0.3485 0.5485 -0.7601
vn 0.1305 0.9907 0.0383
vn -0.7743 0.5907 -0.2271
vn -0.0349 0.5791 -0.8145
vn -0.2546 0.3903 0.8848
vn 0.1567 0.5694 -0.8070
vn -0.5257 -0.8366 -0.1542
vn -0.3475 0.1325 -0.9283
vn 0.4105 0.9105 -0.0495
vn 0.9984 0.0133 0.0540
vn -0.5066 0.3929 -0.7675
vn -0.0734 0.9366 -0.3426
vn 0.4959 0.1597 -0.8536
vn 0.4191 0.0575 -0.9061
vn 0.4252 0.2545 -0.8686
vn 0.3035 0.3108 -0.9007
vn -0.4231 -0.3548 -0.8337
vn 0.2616 0.0739 -0.9623
vn -0.7964 0.0369 0.6036
vn 0.0316 0.9116 0.4098
vn 0.9969 -0.0656 0.0436
vn 0.4059 0.3077 -0.8605
vn 0.6321 0.7744 0.0292
vn 0.3299 0.9276 -0.1751
vn -0.1957 -0.5962 -0.7786
vn -0.3385 0.4656 -0.8177
vn 0.2320 -0.0518 -0.9713
vn 0.4413 0.7930 -0.4199
vn 0.2683 -0.8483 -0.4565
vn 0.7032 -0.0825 -0.7062
vn 0.4959 -0.7678 -0.4057
vn 0.6425 -0.7261 -0.2451
vn 0.6096 0.7891 -0.0760
vn 0.0973 -0.9530 -0.2869
vn 0.7595 0.4638 -0.4562
vn 0.0007 -0.8909 -0.4542
vn -0.3535 -0.7917 -0.4983
vn -0.1708 0.0905 -0.9811
vn -0.3059 0.2947 -0.9053
vn -0.5169 0.3344 -0.7880
vn 0.4993 -0.3213 -0.8047
vn 0.8646 -0.1575 -0.4771
vn 0.8503 0.1222 -0.5120
vn -0.3109 -0.9108 -0.2716
vn -0.1331 -0.9223 -0.3628
vn 0.5095 -0.1517 -0.8470
vn -0.4153 -0.9097 -0.0085
vn -0.2690 -0.8912 0.3654
vn -0.8682 0.4955 0.0271
vn -0.7617 0.1285 0.6351
vn -0.8344 0.4522 0.3150
vn -0.5897 -0.3768 0.7143
vn -0.2653 0.8432 0.4675
vn -0.4859 -0.4961 0.7196
vn 0.1700 0.0667 0.9832
vn -0.2655 0.1843 0.9463
vn -0.1942 0.1479 0.9698
vn -0.2297 0.5199 0.8228
vn -0.4791 0.7972 0.3674
vn -0.5705 0.1356 0.8100
vn -0.3946 0.7743 0.4947
vn -0.2919 0.8031 0.5195
vn -0.0804 0.7009 0.7087
vn -0.0001 0.7000 0.7141
vn 0.2105 0.5935 0.7768
vn -0.3693 -0.0532 0.9278
vn -0.2557 -0.7823 0.5680
vn -0.2750 -0.0171 0.9613
vn 0.3831 0.1005 0.9182
vn 0.3137 -0.0158 0.9494
vn 0.3605 -0.4730 0.8039
vn -0.0393 -0.1328 0.9904
vn -0.1535 -0.7820 0.6041
vn 0.0142 -0.6636 0.7480
vn 0.1695 -0.6268 0.7605
vn -0.4668 -0.8805 -0.0828
vn -0.2345 -0.7879 0.5694
vn -0.2370 0.7118 -0.6613
vn -0.2312 0.2892 -0.9289
vn 0.5767 0.8084 -0.1178
vn -0.1633 0.9806 0.1088
vn 0.3130 0.9193 0.2387
vn 0.3530 0.9101 0.2171
vn 0.5512 0.7927 0.2606
vn -0.4644 0.8836 0.0595
vn -0.4887 0.8722 -0.0199
vn 0.9266 0.1589 -0.3408
vn 0.3801 -0.7185 -0.5825
vn 0.8638 0.1373 0.4848
vn -0.8331 0.5264 -0.1699
vn 0.2860 0.1317 -0.9491
vn 0.1447 0.3687 -0.9182
vn -0.1034 0.5381 -0.8365
vn -0.1217 0.6794 -0.7236
vn 0.2214 0.4482 -0.8661
vn 0.1155 0.7945 -0.5961
vn 0.4616 0.7978 -0.3880
vn 0.6619 0.6855 -0.3034
vn 0.8352 -0.4924 0.2449
vn -0.1312 -0.1256 -0.9834
vn 0.8420 -0.5257 -0.1213
vn 0.4112 0.2595 -0.8738
vn 0.5368 0.3417 -0.7714
vn 0.7410 0.1510 -0.6543
vn 0.3350 0.9240 -0.1845
vn 0.3906 -0.1289 -0.9115
vn -0.1129 0.8437 -0.5249
vn 0.6399 0.7681 0.0216
vn 0.9999 -0.0127 0.0073
vn 0.2528 -0.0372 -0.9668
vn 0.4613 -0.1040 -0.8811
vn 0.9759 0.2130 -0.0483
vn 0.4678 0.0879 -0.8795
vn -0.4480 0.4259 -0.7861
vn -0.5233 -0.4650 -0.7141
vn 0.4749 -0.8324 -0.2856
vn 0.4947 0.1734 -0.8516
vn -0.1629 -0.6032 -0.7808
vn 0.0483 0.2336 -0.9711
vn -0.3634 -0.9316 -0.0024
vn -0.6390 -0.7218 0.2660
vn 0.1035 0.4249 0.8993
vn -0.1747 0.5078 0.8436
vn -0.2985 0.8963 0.3279
vn 0.2201 0.9740 -0.0536
vn 0.1946 0.9716 0.1343
vn 0.4416 0.8878 0.1295
vn -0.1511 0.5930 0.7909
vn -0.1113 -0.3152 0.9425
vn -0.1359 0.4696 0.8724
vn -0.1616 -0.2727 0.9484
vn -0.1638 -0.3244 0.9316
vn -0.1384 -0.4786 0.8671
vn -0.1348 -0.7815 0.6091
vn -0.5354 -0.0587 0.8426
vn -0.5291 -0.0838 0.8444
vn -0.7791 -0.0173 0.6267
vn -0.0568 -0.9413 0.3329
vn -0.3376 0.2122 0.9170
vn -0.0377 0.2294 0.9726
vn 0.1971 0.3465 0.9171
vn -0.1173 0.5485 0.8279
vn 0.3402 0.1280 -0.9316
vn 0.2121 0.2256 -0.9509
vn 0.2346 0.1977 -0.9518
vn 0.2112 0.2122 -0.9541
vn -0.8554 -0.4667 -0.2247
vn -0.2711 -0.0183 -0.9624
vn 0.1439 -0.0096 -0.9895
vn 0.1540 0.0088 -0.9880
vn 0.3781 -0.3592 -0.8532
vn 0.3594 -0.0764 -0.9300
vn 0.4899 -0.4501 -0.7466
vn 0.3909 -0.2841 -0.8755
vn 0.3653 -0.3244 -0.8725
vn 0.4346 -0.1930 -0.8797
vn 0.1223 -0.8555 -0.5032
vn 0.0223 -0.8664 -0.4989
vn 0.2767 0.6812 -0.6777
vn 0.3902 0.4714 -0.7909
vn 0.2798 0.6873 -0.6703
vn -0.0741 0.8963 -0.4372
vn 0.1170 0.9813 -0.1530
vn 0.5196 0.8407 0.1524
vn 0.4456 0.8606 -0.2466
vn 0.2418 0.8606 0.4482
vn 0.5133 0.8449 0.1506
vn 0.5118 0.6036 -0.6113
vn -0.6245 0.1119 0.7729
vn 0.7138 0.6996 -0.0312
vn 0.1005 0.6036 0.7909
vn -0.5302 0.8335 -0.1555
vn 0.0096 1.0000 0.0028
vn 0.5547 0.8211 0.1345
vn 0.1104 -0.5304 -0.8406
vn -0.0661 -0.7682 0.6368
vn -0.6689 -0.1660 -0.7246
vn 0.6000 -0.2638 -0.7553
vn 0.8590 0.4585 0.2277
vn -0.9706 -0.2043 0.1274
vn -0.8585 0.1433 0.4924
vn -0.1594 -0.4128 -0.8968
vn 0.4576 0.5438 0.7035
vn -0.9437 -0.1623 -0.2884
vn -0.9440 -0.3297 0.0093
vn -0.7981 0.0218 -0.6021
vn 0.0211 -0.5478 0.8363
vn 0.8442 0.5130 0.1555
vn 0.7367 0.6289 -0.2484
vn -0.5945 0.7807 0.1926
vn -0.6388 -0.7516 -0.1644
vn -0.9031 0.3409 -0.2612
vn -0.7438 -0.6345 -0.2101
vn 0.7204 -0.1782 -0.6703
vn -0.4228 0.1237 0.8977
vn 0.1290 0.1237 -0.9839
vn 0.0018 -0.1883 -0.9821
vn -0.5625 -0.3552 0.7466
vn -0.0985 -0.5795 -0.8090
vn -0.5537 -0.5051 0.6621
vn -0.8208 -0.5180 -0.2407
vn -0.5487 -0.1004 -0.8300
vn -0.3369 -0.5409 -0.7707
vn -0.3549 0.4067 -0.8418
vt 1.000000 1.000000
vt 0.000000 0.000000
vt 1.002325 1.002325
vt -0.001824 -0.001824
vt -0.046449 0.000000
vt 0.129283 0.000000
vt 0.296460 0.000000
vt 0.000000 1.000000
vt 0.500000 1.000000
vt 0.500275 1.000000
vt 1.000028 1.000000
vt 0.000000 1.000218
vt 0.000000 0.510877
vt -0.046449 0.000000
vt 0.129283 0.000000
vt 0.296460 0.000000
vt 1.000259 1.000259
vt 1.000000 1.000000
vt 1.000000 0.000000
vt 0.723676 0.000000
vt 0.723676 0.000000
vt 0.144279 0.000000
vt 0.439416 0.000000
vt 0.999957 0.999957
vt 0.999958 0.999958
vt 0.286309 0.000000
vt 0.305014 0.000000
vt 0.722434 0.000000
vt 0.721146 0.000000
vt 0.352261 0.000021
vt -0.001824 -0.001824
vt -0.016625 0.000043
vt 0.000273 0.000249
vt 0.305014 0.000000
vt 0.722434 0.000000
vt 0.000273 0.000249
vt -0.016624 0.000043
vt 1.000259 1.000259
vt 0.500000 0.000000
vt 0.439416 0.000000
vt -0.000198 1.000000
vt 0.721146 0.000000
vt 0.352261 0.000021
vt 0.286310 0.000000
vt 0.144279 0.000000
vt 1.000000 0.000000
s 0
usemtl Material.002
f 12/1/1 14/2/1 47/2/1 45/1/1
f 53/1/2 54/3/2 11/1/2
f 55/4/3 56/5/3 14/2/3
f 56/5/4 96/6/4 13/2/4
f 17/2/5 15/2/5 58/7/5
f 58/7/6 19/2/6 17/2/6
f 112/2/7 22/8/7 110/2/7
f 85/2/8 84/8/8 26/2/8
f 83/9/9 25/1/9 86/9/9
f 31/1/10 109/10/10 102/11/10
f 33/1/11 88/9/11 31/1/11
f 88/9/12 33/1/12 89/9/12
f 34/8/13 89/9/13 85/2/13
f 37/8/14 36/8/14 90/8/14
f 36/8/15 27/8/15 91/8/15
f 39/8/16 93/8/16 92/8/16
f 90/8/17 108/8/17 37/8/17
f 85/2/18 89/9/18 42/2/18
f 41/8/19 107/12/19 106/8/19
f 39/8/20 105/13/20 40/8/20
f 122/2/21 106/8/21 37/8/21
f 39/8/22 92/8/22 105/13/22
f 45/1/23 61/3/23 44/1/23
f 46/2/24 63/14/24 47/2/24
f 94/2/25 95/15/25 46/2/25
f 50/2/26 65/16/26 48/2/26
f 65/16/27 50/2/27 52/2/27
f 43/1/28 68/17/28 42/2/28
f 4/1/29 5/1/29 25/1/29
f 80/2/30 15/2/30 48/2/30 94/2/30
f 11/1/31 12/1/31 45/1/31 44/1/31
f 11/1/32 60/18/32 53/1/32
f 7/1/33 8/1/33 33/1/33
f 101/1/34 6/1/34 31/1/34
f 15/2/35 17/2/35 50/2/35 48/2/35
f 14/2/36 13/2/36 46/2/36 47/2/36
f 16/19/37 2/19/37 21/19/37 49/19/37
f 74/20/38 18/19/38 51/19/38 79/21/38
f 21/19/39 2/19/39 23/1/39
f 17/2/40 19/2/40 52/2/40 50/2/40
f 31/1/41 6/1/41 33/1/41
f 138/22/42 59/2/42 142/23/42
f 75/24/43 70/25/43 60/18/43
f 141/26/44 142/23/44 59/2/44
f 64/27/45 78/28/45 77/29/45
f 95/15/46 98/30/46 63/14/46
f 47/2/47 62/31/47 45/1/47
f 62/31/48 69/32/48 76/33/48
f 60/18/49 61/3/49 75/24/49
f 138/22/50 141/26/50 59/2/50
f 58/7/51 57/34/51 73/35/51
f 71/36/52 67/37/52 55/4/52
f 66/38/53 54/3/53 70/25/53
f 70/25/54 8/1/54 66/38/54
f 1/2/55 71/36/55 9/2/55
f 55/4/56 66/38/56 71/36/56
f 2/19/57 16/19/57 73/35/57
f 74/20/58 73/35/58 18/19/58
f 20/2/59 42/2/59 76/33/59
f 68/17/60 61/3/60 62/31/60
f 98/30/61 81/39/61 69/32/61
f 21/19/62 78/28/62 49/19/62
f 78/28/63 51/19/63 128/19/63
f 8/1/64 70/25/64 35/1/64
f 142/23/65 74/20/65 79/21/65 143/40/65
f 21/19/66 81/39/66 77/29/66
f 96/6/67 97/2/67 57/34/67
f 77/29/68 98/30/68 64/27/68
f 13/2/69 80/2/69 94/2/69 46/2/69
f 48/2/70 64/27/70 94/2/70
f 103/41/71 108/8/71 28/8/71
f 30/8/72 32/8/72 93/8/72
f 22/8/73 24/8/73 84/8/73
f 24/8/74 28/8/74 90/8/74
f 89/9/75 34/2/75 88/9/75
f 88/9/76 32/8/76 30/8/76
f 103/41/77 109/10/77 30/8/77
f 28/8/78 24/8/78 86/9/78
f 84/8/79 85/2/79 22/8/79
f 112/2/80 82/9/80 22/8/80
f 15/2/81 80/2/81 57/34/81
f 66/38/82 10/1/82 9/2/82
f 39/8/83 100/8/83 38/8/83
f 28/8/84 86/9/84 109/10/84
f 30/8/85 93/8/85 108/8/85
f 104/8/86 122/2/86 37/8/86
f 27/8/87 107/12/87 26/2/87
f 36/8/88 106/8/88 27/8/88
f 38/8/89 104/8/89 108/8/89
f 86/9/90 29/1/90 109/10/90
f 34/2/91 26/2/91 105/13/91
f 26/2/92 34/2/92 85/2/92
f 105/13/93 92/8/93 34/2/93
f 34/2/94 92/8/94 32/8/94
f 38/8/95 99/8/95 104/8/95
f 39/8/96 40/8/96 100/8/96
f 40/8/97 105/13/97 107/12/97
f 110/2/98 20/2/98 112/2/98
f 81/39/99 21/19/99 112/39/99
f 112/39/100 111/19/100 82/9/100
f 82/9/101 111/19/101 23/1/101
f 23/1/102 111/19/102 21/19/102
f 69/32/103 20/2/103 76/33/103
f 22/8/104 20/2/104 110/2/104
f 41/8/105 40/8/105 107/12/105
f 112/39/106 21/19/106 111/19/106
f 20/2/107 81/39/107 112/2/107
f 27/8/108 26/2/108 84/8/108
f 2/2/109 113/2/109 115/2/109
f 113/2/110 1/2/110 116/2/110
f 2/2/111 115/2/111 3/1/111
f 116/2/112 117/2/112 115/2/112
f 115/2/113 117/2/113 3/1/113
f 97/2/114 113/2/114 72/42/114
f 72/42/115 113/2/115 2/2/115
f 67/2/116 113/2/116 97/2/116
f 67/2/117 1/2/117 113/2/117
f 67/2/118 97/2/118 56/5/118
f 56/5/119 97/2/119 96/6/119
f 57/34/120 97/43/120 72/42/120
f 4/1/121 3/1/121 117/2/121
f 117/2/122 116/2/122 118/2/122
f 117/2/123 118/2/123 4/1/123
f 5/1/124 4/1/124 118/2/124
f 118/2/125 119/2/125 5/1/125
f 5/1/126 119/2/126 101/1/126
f 6/1/127 101/1/127 119/2/127
f 118/2/128 116/2/128 121/2/128
f 116/2/129 114/2/129 121/2/129
f 119/2/130 118/2/130 121/2/130
f 7/1/131 6/1/131 119/2/131
f 120/2/132 7/1/132 119/2/132
f 8/1/133 7/1/133 120/2/133
f 120/2/134 119/2/134 121/2/134
f 10/1/135 121/2/135 9/2/135
f 120/2/136 121/2/136 10/1/136
f 10/1/137 8/1/137 120/2/137
f 1/2/138 9/2/138 114/2/138
f 114/2/139 9/2/139 121/2/139
f 36/8/140 37/8/140 106/8/140
f 107/12/141 27/8/141 106/8/141
f 99/8/142 122/2/142 104/8/142
f 25/1/143 5/1/143 29/1/143
f 29/1/144 5/1/144 101/1/144
f 102/11/145 29/1/145 101/1/145
f 102/11/146 101/1/146 31/1/146
f 3/1/147 4/1/147 25/1/147
f 25/1/148 23/1/148 3/1/148
f 87/9/149 31/1/149 88/9/149
f 41/8/150 106/8/150 122/2/150
f 6/1/151 7/1/151 33/1/151
f 3/1/152 23/1/152 2/2/152
f 22/8/153 82/9/153 24/8/153
f 24/8/154 82/9/154 83/9/154
f 82/9/155 23/1/155 83/9/155
f 25/1/156 83/9/156 23/1/156
f 24/8/157 83/9/157 86/9/157
f 29/1/158 86/9/158 25/1/158
f 102/11/159 109/10/159 29/1/159
f 87/9/160 109/10/160 31/1/160
f 33/1/161 8/1/161 35/1/161
f 95/15/46 64/27/46 98/30/46
f 98/30/162 77/29/162 81/39/162
f 35/1/163 89/9/163 33/1/163
f 103/41/164 28/8/164 109/10/164
f 87/9/165 30/8/165 109/10/165
f 30/8/166 87/9/166 88/9/166
f 90/8/167 28/8/167 108/8/167
f 91/8/168 90/8/168 36/8/168
f 91/8/169 24/8/169 90/8/169
f 103/41/170 30/8/170 108/8/170
f 92/8/171 93/8/171 32/8/171
f 93/8/172 38/8/172 108/8/172
f 104/8/173 37/8/173 108/8/173
f 38/2/174 100/2/174 99/2/174
f 84/8/175 91/8/175 27/8/175
f 24/8/176 91/8/176 84/8/176
f 20/2/177 22/8/177 85/2/177
f 43/1/178 89/9/178 35/1/178
f 32/8/179 88/9/179 34/2/179
f 105/13/180 26/2/180 107/12/180
f 38/8/181 93/8/181 39/8/181
f 116/2/182 1/2/182 114/2/182
f 115/2/183 113/2/183 116/2/183
f 1/2/184 67/37/184 71/36/184
f 71/36/185 66/38/185 9/2/185
f 10/1/186 66/38/186 8/1/186
f 75/24/187 35/1/187 70/25/187
f 70/25/188 53/1/188 60/18/188
f 60/18/189 11/1/189 44/1/189
f 70/25/190 54/3/190 53/1/190
f 12/1/191 11/1/191 54/3/191
f 54/3/192 66/38/192 55/4/192
f 14/2/193 12/1/193 55/4/193
f 12/1/194 54/3/194 55/4/194
f 55/4/195 67/37/195 56/5/195
f 13/2/196 14/2/196 56/5/196
f 80/2/197 13/2/197 96/6/197
f 57/34/198 80/2/198 96/6/198
f 57/34/199 58/7/199 15/2/199
f 137/2/200 140/44/200 139/45/200
f 73/35/201 74/20/201 58/7/201
f 72/42/202 73/35/202 57/34/202
f 72/42/203 2/19/203 73/35/203
f 73/35/204 127/19/204 18/19/204
f 77/29/205 78/28/205 21/19/205
f 79/21/206 51/19/206 78/28/206
f 78/28/207 64/27/207 65/16/207
f 65/16/208 79/21/208 78/28/208
f 141/26/209 140/44/209 19/2/209
f 48/2/210 65/16/210 64/27/210
f 64/27/211 95/15/211 94/2/211
f 63/14/212 46/2/212 95/15/212
f 63/14/213 69/32/213 62/31/213
f 69/32/214 63/14/214 98/30/214
f 20/2/215 69/32/215 81/39/215
f 47/2/216 63/14/216 62/31/216
f 45/1/217 62/31/217 61/3/217
f 44/1/218 61/3/218 60/18/218
f 43/1/219 42/2/219 89/9/219
f 20/2/220 85/2/220 42/2/220
f 76/33/221 68/17/221 62/31/221
f 61/3/222 68/17/222 75/24/222
f 75/24/223 68/17/223 35/1/223
f 43/1/224 35/1/224 68/17/224
f 42/2/225 68/17/225 76/33/225
f 16/19/226 49/19/226 124/19/226 123/19/226
f 124/19/227 49/19/227 128/19/227
f 16/19/228 123/19/228 127/19/228
f 123/19/229 124/19/229 126/19/229 125/19/229
f 78/28/230 128/19/230 49/19/230
f 130/19/231 133/46/231 131/19/231
f 131/19/232 132/19/232 130/19/232
f 73/35/233 16/19/233 127/19/233
f 125/19/234 126/19/234 128/19/234 127/19/234
f 18/19/235 127/19/235 128/19/235 51/19/235
f 134/19/236 135/46/236 129/19/236
f 130/19/237 132/19/237 133/46/237
f 136/46/238 134/19/238 129/19/238
f 135/46/239 136/46/239 129/19/239
f 124/19/240 128/19/240 132/19/240
f 132/19/241 131/19/241 124/19/241
f 128/19/242 126/19/242 133/46/242
f 133/46/243 126/19/243 131/19/243
f 133/46/244 132/19/244 128/19/244
f 126/19/245 124/19/245 131/19/245
f 136/46/246 135/46/246 127/19/246
f 136/46/247 127/19/247 134/19/247
f 127/19/248 135/46/248 125/19/248
f 123/19/249 134/19/249 127/19/249
f 134/19/250 123/19/250 135/46/250
f 123/19/251 125/19/251 135/46/251
f 143/40/252 137/2/252 139/45/252
f 140/44/253 141/26/253 138/22/253
f 143/40/254 139/45/254 138/22/254 142/23/254
f 140/44/255 138/22/255 139/45/255
f 140/44/256 137/2/256 143/40/256
f 74/20/257 142/23/257 58/7/257
f 79/21/258 65/16/258 143/40/258
f 140/44/259 143/40/259 65/16/259
f 141/26/260 58/7/260 142/23/260
f 65/16/261 52/2/261 140/44/261
f 141/26/262 19/2/262 58/7/262
f 19/2/263 140/44/263 52/2/263
f 100/8/264 40/8/264 41/8/264
f 122/2/265 99/8/265 41/8/265
f 99/8/266 100/8/266 41/8/266
